<?xml version="1.0" standalone="no"?>
<!DOCTYPE svg PUBLIC "-//W3C//DTD SVG 20010904//EN"
 "http://www.w3.org/TR/2001/REC-SVG-20010904/DTD/svg10.dtd">
<svg version="1.0" xmlns="http://www.w3.org/2000/svg"
 width="136.000000pt" height="88.000000pt" viewBox="0 0 136.000000 88.000000"
 preserveAspectRatio="xMidYMid meet">

<g transform="translate(0.000000,88.000000) scale(0.100000,-0.100000)"
fill="#000000" stroke="none">
<path d="M885 724 c5 -10 8 -31 7 -46 -1 -27 1 -28 48 -28 56 0 90 -24 90 -63
0 -28 -29 -57 -56 -57 -27 0 -44 -19 -43 -50 0 -28 96 -198 120 -213 24 -15
66 0 72 24 4 15 -8 47 -34 94 l-39 72 21 19 c49 43 62 120 30 182 -26 51 -70
74 -154 80 -66 5 -70 4 -62 -14z"/>
<path d="M652 703 c-26 -39 -34 -53 -28 -53 2 0 14 16 26 36 18 28 28 34 49
32 40 -5 37 -30 -15 -110 -26 -40 -66 -102 -89 -138 -51 -78 -57 -90 -52 -90
3 0 28 37 57 83 29 45 73 112 97 149 46 72 50 87 31 106 -21 21 -56 14 -76
-15z"/>
<path d="M505 469 c-53 -83 -95 -152 -93 -154 2 -3 39 51 81 118 42 67 86 137
98 155 11 17 19 32 16 32 -3 0 -49 -68 -102 -151z"/>
<path d="M656 488 l-18 -33 24 29 c29 35 63 33 63 -4 0 -22 -5 -26 -50 -31
l-50 -7 49 2 c35 1 52 6 60 19 15 23 -3 51 -35 55 -18 2 -29 -5 -43 -30z"/>
<path d="M516 345 c-41 -64 -50 -80 -34 -65 17 17 62 90 55 90 -3 0 -12 -11
-21 -25z"/>
<path d="M410 291 c0 -6 4 -13 10 -16 6 -3 7 1 4 9 -7 18 -14 21 -14 7z"/>
<path d="M290 161 c0 -11 4 -22 9 -25 4 -3 6 6 3 19 -5 30 -12 33 -12 6z"/>
<path d="M358 173 c7 -3 16 -2 19 1 4 3 -2 6 -13 5 -11 0 -14 -3 -6 -6z"/>
<path d="M400 161 c0 -11 4 -22 9 -25 4 -3 6 6 3 19 -5 30 -12 33 -12 6z"/>
<path d="M432 155 c0 -16 2 -22 5 -12 2 9 2 23 0 30 -3 6 -5 -1 -5 -18z"/>
<path d="M483 165 c0 -8 4 -12 9 -9 5 3 6 10 3 15 -9 13 -12 11 -12 -6z"/>
<path d="M510 155 c0 -14 4 -25 8 -25 4 0 8 11 8 25 0 14 -4 25 -8 25 -4 0 -8
-11 -8 -25z"/>
<path d="M607 160 c3 -11 10 -23 16 -27 7 -4 8 0 4 11 -4 10 -7 22 -7 27 0 5
-4 9 -9 9 -5 0 -7 -9 -4 -20z"/>
<path d="M690 155 c0 -14 2 -25 4 -25 2 0 6 11 8 25 3 14 1 25 -3 25 -5 0 -9
-11 -9 -25z"/>
<path d="M722 155 c0 -16 2 -22 5 -12 2 9 2 23 0 30 -3 6 -5 -1 -5 -18z"/>
<path d="M750 155 c0 -14 3 -25 8 -25 4 0 7 11 7 25 0 14 -3 25 -7 25 -5 0 -8
-11 -8 -25z"/>
<path d="M933 156 c7 -14 13 -23 15 -21 7 6 -9 45 -18 45 -4 0 -3 -11 3 -24z"/>
<path d="M1023 164 c-3 -8 -2 -19 3 -24 5 -5 9 1 9 16 0 28 -3 30 -12 8z"/>
<path d="M1080 159 c0 -11 4 -18 10 -14 5 3 7 12 3 20 -7 21 -13 19 -13 -6z"/>
<path d="M1111 164 c0 -11 3 -14 6 -6 3 7 2 16 -1 19 -3 4 -6 -2 -5 -13z"/>
</g>
</svg>
