<?xml version="1.0" encoding="UTF-8"?>
<!DOCTYPE svg PUBLIC "-//W3C//DTD SVG 1.1//EN" "http://www.w3.org/Graphics/SVG/1.1/DTD/svg11.dtd">
<svg xmlns="http://www.w3.org/2000/svg" version="1.1" width="136px" height="88px" style="shape-rendering:geometricPrecision; text-rendering:geometricPrecision; image-rendering:optimizeQuality; fill-rule:evenodd; clip-rule:evenodd" xmlns:xlink="http://www.w3.org/1999/xlink">
<g><path style="opacity:1" fill="#fcfcfc" d="M -0.5,-0.5 C 44.8333,-0.5 90.1667,-0.5 135.5,-0.5C 135.5,28.8333 135.5,58.1667 135.5,87.5C 90.1667,87.5 44.8333,87.5 -0.5,87.5C -0.5,58.1667 -0.5,28.8333 -0.5,-0.5 Z"/></g>
<g><path style="opacity:1" fill="#589dc8" d="M 25.5,13.5 C 28.3245,13.0807 30.4912,14.0807 32,16.5C 32.6667,30.8333 32.6667,45.1667 32,59.5C 29.3333,62.1667 26.6667,62.1667 24,59.5C 23.3333,44.8333 23.3333,30.1667 24,15.5C 24.7172,14.9558 25.2172,14.2891 25.5,13.5 Z"/></g>
<g><path style="opacity:1" fill="#5fa0ca" d="M 33.5,13.5 C 43.5222,13.1681 53.5222,13.5015 63.5,14.5C 61.3771,17.2456 59.3771,20.079 57.5,23C 49.8406,23.4997 42.1739,23.6664 34.5,23.5C 34.6576,20.0977 34.3242,16.7644 33.5,13.5 Z"/></g>
<g><path style="opacity:1" fill="#e26865" d="M 66.5,13.5 C 72.4992,13.002 74.6659,15.6687 73,21.5C 64.6667,34.5 56.3333,47.5 48,60.5C 41.8318,62.9901 39.1651,60.9901 40,54.5C 49.0566,40.9503 57.8899,27.2836 66.5,13.5 Z"/></g>
<g><path style="opacity:1" fill="#f2ac68" d="M 79.5,13.5 C 86.2296,13.9894 87.8963,17.1561 84.5,23C 76.4079,23.0901 74.7412,19.9235 79.5,13.5 Z"/></g>
<g><path style="opacity:1" fill="#6d5a97" d="M 87.5,13.5 C 97.6255,11.0693 105.459,14.0693 111,22.5C 112.6,30.027 110.766,36.527 105.5,42C 107.716,46.9304 110.049,51.7637 112.5,56.5C 111.198,62.5821 108.031,63.9155 103,60.5C 99.1499,53.463 95.3165,46.463 91.5,39.5C 91.7605,37.8129 92.4272,36.3129 93.5,35C 99.7607,35.3271 102.594,32.4938 102,26.5C 101.167,25.6667 100.333,24.8333 99.5,24C 95.4592,23.8265 91.4592,23.3265 87.5,22.5C 88.7237,19.5047 88.7237,16.5047 87.5,13.5 Z"/></g>
<g><path style="opacity:1" fill="#f2a760" d="M 78.5,28.5 C 80.9201,28.2924 83.2534,28.6258 85.5,29.5C 86.6657,40.1511 86.8324,50.8177 86,61.5C 83.0844,63.0135 80.4177,62.6801 78,60.5C 77.1917,49.7568 77.3583,39.0901 78.5,28.5 Z"/></g>
<g><path style="opacity:1" fill="#5c9fc9" d="M 35.5,34.5 C 41.9857,32.8346 44.819,35.168 44,41.5C 43.2917,42.3805 42.4584,43.0472 41.5,43.5C 39.5,43.5 37.5,43.5 35.5,43.5C 35.5,40.5 35.5,37.5 35.5,34.5 Z"/></g>
<g><path style="opacity:1" fill="#e26d69" d="M 66.5,34.5 C 71.8351,34.005 74.3351,36.3384 74,41.5C 70.3556,44.6213 66.1889,45.288 61.5,43.5C 63.624,40.7206 65.2907,37.7206 66.5,34.5 Z"/></g>
<g><path style="opacity:1" fill="#9fc5dd" d="M 35.5,34.5 C 35.5,37.5 35.5,40.5 35.5,43.5C 37.5,43.5 39.5,43.5 41.5,43.5C 39.3926,44.4682 37.0593,44.8016 34.5,44.5C 34.1872,40.9581 34.5206,37.6248 35.5,34.5 Z"/></g>
<g><path style="opacity:1" fill="#7c6c9e" d="M 102.5,73.5 C 101.566,72.4324 101.232,71.099 101.5,69.5C 105.838,69.6219 106.172,69.9553 102.5,70.5C 102.5,71.5 102.5,72.5 102.5,73.5 Z"/></g>
<g><path style="opacity:1" fill="#9386af" d="M 39.5,69.5 C 40.1614,70.7175 40.8281,72.0508 41.5,73.5C 42.4287,72.3112 42.762,70.9778 42.5,69.5C 44.8333,69.5 47.1667,69.5 49.5,69.5C 49.6602,71.1992 49.4935,72.8659 49,74.5C 47.6841,71.972 46.5174,71.972 45.5,74.5C 43.674,74.0798 41.674,74.0798 39.5,74.5C 39.5,72.8333 39.5,71.1667 39.5,69.5 Z"/></g>
<g><path style="opacity:1" fill="#8a7ba8" d="M 68.5,69.5 C 69.8333,69.5 71.1667,69.5 72.5,69.5C 72.6602,71.1992 72.4935,72.8659 72,74.5C 71,73.1667 70,73.1667 69,74.5C 68.5065,72.8659 68.3398,71.1992 68.5,69.5 Z"/></g>
<g><path style="opacity:1" fill="#7e70a0" d="M 74.5,69.5 C 78.8926,69.4568 79.2259,69.9568 75.5,71C 78.1667,71.6667 78.1667,72.3333 75.5,73C 79.2259,74.0432 78.8926,74.5432 74.5,74.5C 74.5,72.8333 74.5,71.1667 74.5,69.5 Z"/></g>
<g><path style="opacity:1" fill="#8171a3" d="M 34.5,70.5 C 35.2506,69.4265 36.2506,69.2599 37.5,70C 36.7734,71.3988 36.2734,72.8988 36,74.5C 35.79,72.9419 35.29,71.6085 34.5,70.5 Z"/></g>
<g><path style="opacity:1" fill="#887aa6" d="M 50.5,69.5 C 51.8734,69.3433 53.2068,69.51 54.5,70C 51.8333,70.6667 51.8333,71.3333 54.5,72C 51.8333,72.6667 51.8333,73.3333 54.5,74C 53.2068,74.49 51.8734,74.6567 50.5,74.5C 50.5,72.8333 50.5,71.1667 50.5,69.5 Z"/></g>
<g><path style="opacity:1" fill="#a095b9" d="M 80.5,68.5 C 81.4959,68.4142 82.3292,68.7476 83,69.5C 83.4935,71.1341 83.6602,72.8008 83.5,74.5C 82.1667,74.5 80.8333,74.5 79.5,74.5C 79.3253,72.3792 79.6586,70.3792 80.5,68.5 Z"/></g>
<g><path style="opacity:1" fill="#897ca9" d="M 23.5,69.5 C 24.8734,69.3433 26.2068,69.51 27.5,70C 27.0769,71.5089 25.9102,73.0089 24,74.5C 23.5065,72.8659 23.3398,71.1992 23.5,69.5 Z"/></g>
<g><path style="opacity:1" fill="#8f81ad" d="M 59.5,69.5 C 61.335,70.1223 62.5017,71.4556 63,73.5C 64.4578,68.4055 65.2912,68.7389 65.5,74.5C 63.0607,73.9475 60.7273,73.9475 58.5,74.5C 57.7992,72.8084 58.1325,71.1417 59.5,69.5 Z"/></g>
<g><path style="opacity:1" fill="#9588b0" d="M 84.5,68.5 C 85.9778,68.238 87.3112,68.5713 88.5,69.5C 86.0087,70.5407 86.0087,71.3741 88.5,72C 87.8333,72.3333 87.1667,72.6667 86.5,73C 87.7932,73.49 89.1266,73.6567 90.5,73.5C 91.6347,68.2063 93.1347,68.2063 95,73.5C 95.49,72.2068 95.6567,70.8734 95.5,69.5C 97.1667,69.5 98.8333,69.5 100.5,69.5C 100.785,71.288 100.452,72.9547 99.5,74.5C 98.8076,73.9747 98.3076,73.3081 98,72.5C 97.4806,73.5156 96.6473,74.1822 95.5,74.5C 91.9302,74.0914 88.2635,74.0914 84.5,74.5C 84.5,72.5 84.5,70.5 84.5,68.5 Z"/></g>
<g><path style="opacity:1" fill="#8778a7" d="M 28.5,69.5 C 29.1614,70.7175 29.8281,72.0508 30.5,73.5C 31.1667,72.1667 31.8333,70.8333 32.5,69.5C 34.2424,73.4343 32.909,75.101 28.5,74.5C 28.5,72.8333 28.5,71.1667 28.5,69.5 Z"/></g>
<g><path style="opacity:1" fill="#9487af" d="M 102.5,73.5 C 103.967,72.7084 105.3,72.7084 106.5,73.5C 105.042,74.782 103.708,74.782 102.5,73.5 Z"/></g>
<g><path style="opacity:1" fill="#9487b0" d="M 107.5,69.5 C 108.94,70.3629 110.274,70.3629 111.5,69.5C 112.833,71.1667 112.833,72.8333 111.5,74.5C 110.184,71.972 109.017,71.972 108,74.5C 107.506,72.8659 107.34,71.1992 107.5,69.5 Z"/></g>
</svg>
