<svg version="1.0" id="Layer_1" xmlns="http://www.w3.org/2000/svg" xmlns:xlink="http://www.w3.org/1999/xlink" x="0px" y="0px"
	 viewBox="0 0 685.7 76.2" style="enable-background:new 0 0 685.7 76.2;" xml:space="preserve">
<style type="text/css">
	.st0{fill:#3FA535;}
	.st1{fill:#FFFFFF;}
</style>
<g>
	<g>
		<rect x="30.2" y="0" class="st0" width="15.6" height="75.8"/>
		<polygon class="st0" points="60.9,25.4 60.9,75.8 90.3,75.8 		"/>
		<polygon class="st0" points="61.2,0 91.1,51.3 91.1,0 		"/>
		<rect y="0" class="st0" width="15.1" height="75.8"/>
		<rect x="106.2" y="0" class="st0" width="15.1" height="75.8"/>
		<rect x="136.4" y="0" class="st0" width="15.1" height="75.8"/>
	</g>
	<g>
		<path class="st1" d="M182.2,0v32.4h-7.1V0H182.2z"/>
		<path class="st1" d="M193.3,26.6c0.3,0.5,0.7,0.9,1.1,1.2c0.5,0.3,1,0.6,1.6,0.7c0.6,0.2,1.2,0.2,1.8,0.2c0.5,0,0.9-0.1,1.4-0.2
			c0.5-0.1,1-0.3,1.4-0.5c0.4-0.2,0.7-0.5,1-0.9c0.3-0.4,0.4-0.9,0.4-1.4c0-1-0.6-1.7-1.9-2.2c-1.3-0.5-3.1-1-5.4-1.5
			c-0.9-0.2-1.9-0.5-2.7-0.7c-0.9-0.3-1.7-0.7-2.4-1.1c-0.7-0.5-1.3-1.1-1.7-1.8c-0.4-0.7-0.6-1.6-0.6-2.6c0-1.5,0.3-2.8,0.9-3.7
			c0.6-1,1.4-1.7,2.3-2.3c1-0.6,2.1-1,3.3-1.2c1.2-0.2,2.5-0.3,3.7-0.3s2.5,0.1,3.7,0.4s2.3,0.7,3.2,1.2c0.9,0.6,1.7,1.3,2.3,2.3
			c0.6,1,1,2.2,1.1,3.6h-6.1c-0.1-1.2-0.6-2.1-1.4-2.5c-0.8-0.4-1.8-0.7-3-0.7c-0.4,0-0.8,0-1.2,0.1c-0.4,0-0.8,0.1-1.2,0.3
			c-0.3,0.2-0.6,0.4-0.9,0.7c-0.2,0.3-0.4,0.7-0.4,1.2c0,0.6,0.2,1,0.6,1.4c0.4,0.4,1,0.7,1.7,0.9c0.7,0.2,1.5,0.4,2.3,0.6
			c0.9,0.2,1.8,0.4,2.7,0.6c0.9,0.2,1.9,0.5,2.7,0.8c0.9,0.3,1.7,0.7,2.4,1.2c0.7,0.5,1.3,1.1,1.7,1.9c0.4,0.7,0.6,1.7,0.6,2.7
			c0,1.5-0.3,2.8-0.9,3.9c-0.6,1-1.4,1.9-2.4,2.5s-2.1,1.1-3.4,1.3c-1.3,0.3-2.6,0.4-3.9,0.4c-1.4,0-2.7-0.1-4-0.4s-2.5-0.7-3.5-1.4
			c-1-0.6-1.8-1.5-2.5-2.5c-0.7-1-1-2.4-1.1-3.9h6.1C192.8,25.5,193,26.1,193.3,26.6z"/>
		<path class="st1" d="M211.9,16.2c0.1-1.5,0.5-2.8,1.1-3.8c0.7-1,1.5-1.8,2.5-2.4c1-0.6,2.2-1,3.5-1.3c1.3-0.3,2.6-0.4,3.9-0.4
			c1.2,0,2.4,0.1,3.6,0.2c1.2,0.2,2.3,0.5,3.3,1c1,0.5,1.8,1.2,2.5,2s1,2,1,3.4v12.2c0,1.1,0.1,2.1,0.2,3c0.1,1,0.3,1.7,0.6,2.2
			h-6.5c-0.1-0.4-0.2-0.7-0.3-1.1c-0.1-0.4-0.1-0.8-0.2-1.2c-1,1.1-2.2,1.8-3.6,2.2c-1.4,0.4-2.8,0.6-4.3,0.6
			c-1.1,0-2.2-0.1-3.1-0.4s-1.8-0.7-2.5-1.3s-1.3-1.3-1.7-2.2c-0.4-0.9-0.6-1.9-0.6-3.1c0-1.3,0.2-2.4,0.7-3.3
			c0.5-0.9,1.1-1.6,1.8-2.1s1.6-0.9,2.5-1.2c1-0.3,1.9-0.5,2.9-0.6c1-0.2,1.9-0.3,2.9-0.4s1.8-0.2,2.5-0.4s1.3-0.4,1.7-0.8
			c0.4-0.3,0.6-0.9,0.6-1.5c0-0.7-0.1-1.2-0.3-1.7c-0.2-0.4-0.5-0.7-0.9-1c-0.4-0.2-0.8-0.4-1.3-0.5c-0.5-0.1-1-0.1-1.6-0.1
			c-1.3,0-2.3,0.3-3,0.8c-0.7,0.5-1.2,1.5-1.3,2.7H211.9z M226.8,20.9c-0.3,0.2-0.6,0.4-1,0.6c-0.4,0.1-0.8,0.2-1.3,0.3
			c-0.5,0.1-1,0.2-1.5,0.2c-0.5,0.1-1,0.1-1.5,0.2c-0.5,0.1-1,0.2-1.4,0.4c-0.5,0.2-0.9,0.4-1.2,0.6c-0.3,0.3-0.6,0.6-0.8,1
			c-0.2,0.4-0.3,0.9-0.3,1.5c0,0.6,0.1,1.1,0.3,1.5c0.2,0.4,0.5,0.7,0.9,0.9c0.4,0.2,0.8,0.4,1.3,0.5c0.5,0.1,1,0.1,1.5,0.1
			c1.3,0,2.3-0.2,3-0.6s1.2-0.9,1.5-1.5c0.3-0.6,0.5-1.2,0.6-1.8s0.1-1.1,0.1-1.5V20.9z"/>
		<path class="st1" d="M238,16.2c0.1-1.5,0.5-2.8,1.1-3.8c0.7-1,1.5-1.8,2.5-2.4c1-0.6,2.2-1,3.5-1.3c1.3-0.3,2.6-0.4,3.9-0.4
			c1.2,0,2.4,0.1,3.6,0.2c1.2,0.2,2.3,0.5,3.3,1c1,0.5,1.8,1.2,2.5,2s1,2,1,3.4v12.2c0,1.1,0.1,2.1,0.2,3c0.1,1,0.3,1.7,0.6,2.2
			h-6.5c-0.1-0.4-0.2-0.7-0.3-1.1c-0.1-0.4-0.1-0.8-0.2-1.2c-1,1.1-2.2,1.8-3.6,2.2c-1.4,0.4-2.8,0.6-4.3,0.6
			c-1.1,0-2.2-0.1-3.1-0.4s-1.8-0.7-2.5-1.3s-1.3-1.3-1.7-2.2c-0.4-0.9-0.6-1.9-0.6-3.1c0-1.3,0.2-2.4,0.7-3.3
			c0.5-0.9,1.1-1.6,1.8-2.1s1.6-0.9,2.5-1.2c1-0.3,1.9-0.5,2.9-0.6c1-0.2,1.9-0.3,2.9-0.4s1.8-0.2,2.5-0.4s1.3-0.4,1.7-0.8
			c0.4-0.3,0.6-0.9,0.6-1.5c0-0.7-0.1-1.2-0.3-1.7c-0.2-0.4-0.5-0.7-0.9-1c-0.4-0.2-0.8-0.4-1.3-0.5c-0.5-0.1-1-0.1-1.6-0.1
			c-1.3,0-2.3,0.3-3,0.8c-0.7,0.5-1.2,1.5-1.3,2.7H238z M252.9,20.9c-0.3,0.2-0.6,0.4-1,0.6c-0.4,0.1-0.8,0.2-1.3,0.3
			c-0.5,0.1-1,0.2-1.5,0.2c-0.5,0.1-1,0.1-1.5,0.2c-0.5,0.1-1,0.2-1.4,0.4c-0.5,0.2-0.9,0.4-1.2,0.6c-0.3,0.3-0.6,0.6-0.8,1
			c-0.2,0.4-0.3,0.9-0.3,1.5c0,0.6,0.1,1.1,0.3,1.5c0.2,0.4,0.5,0.7,0.9,0.9c0.4,0.2,0.8,0.4,1.3,0.5c0.5,0.1,1,0.1,1.5,0.1
			c1.3,0,2.3-0.2,3-0.6s1.2-0.9,1.5-1.5c0.3-0.6,0.5-1.2,0.6-1.8s0.1-1.1,0.1-1.5V20.9z"/>
		<path class="st1" d="M275.6,13.2c-1,0-1.9,0.2-2.6,0.7c-0.7,0.5-1.3,1.1-1.7,1.8c-0.4,0.7-0.8,1.6-0.9,2.5
			c-0.2,0.9-0.3,1.8-0.3,2.7c0,0.8,0.1,1.7,0.3,2.6c0.2,0.9,0.5,1.7,0.9,2.4c0.4,0.7,1,1.3,1.7,1.7c0.7,0.5,1.5,0.7,2.5,0.7
			c1.5,0,2.7-0.4,3.6-1.3c0.8-0.9,1.4-2,1.6-3.5h6.2c-0.4,3.1-1.6,5.5-3.6,7.1c-2,1.6-4.6,2.5-7.7,2.5c-1.8,0-3.4-0.3-4.8-0.9
			c-1.5-0.6-2.7-1.4-3.7-2.5c-1-1.1-1.8-2.3-2.4-3.8s-0.9-3.1-0.9-4.8c0-1.8,0.3-3.5,0.8-5.1c0.5-1.6,1.3-2.9,2.3-4s2.3-2,3.8-2.7
			s3.2-1,5.1-1c1.4,0,2.7,0.2,4,0.5s2.4,0.9,3.5,1.7c1,0.7,1.8,1.7,2.5,2.8c0.6,1.1,1,2.4,1.1,3.9h-6.3
			C279.9,14.5,278.3,13.2,275.6,13.2z"/>
		<path class="st1" d="M310.8,0l13.5,21.8h0.1V0h6.7v32.4H324l-13.5-21.7h-0.1v21.7h-6.7V0H310.8z"/>
		<path class="st1" d="M343.6,26.8c1,0.9,2.4,1.4,4.2,1.4c1.3,0,2.4-0.3,3.4-1c0.9-0.7,1.5-1.3,1.7-2.1h5.7c-0.9,2.8-2.3,4.8-4.2,6
			c-1.9,1.2-4.1,1.8-6.8,1.8c-1.8,0-3.5-0.3-5-0.9c-1.5-0.6-2.7-1.4-3.8-2.5c-1-1.1-1.8-2.4-2.4-3.9c-0.6-1.5-0.8-3.2-0.8-5
			c0-1.8,0.3-3.4,0.9-4.9c0.6-1.5,1.4-2.8,2.5-3.9c1.1-1.1,2.3-2,3.8-2.6s3.1-1,4.9-1c2,0,3.7,0.4,5.2,1.2c1.5,0.8,2.7,1.8,3.7,3.1
			c1,1.3,1.6,2.8,2.1,4.5c0.4,1.7,0.6,3.4,0.5,5.2H342C342.1,24.3,342.6,25.9,343.6,26.8z M350.9,14.4c-0.8-0.8-1.9-1.3-3.5-1.3
			c-1,0-1.9,0.2-2.6,0.5c-0.7,0.3-1.2,0.8-1.6,1.3c-0.4,0.5-0.7,1.1-0.9,1.6c-0.2,0.6-0.3,1.1-0.3,1.5h10.5
			C352.2,16.5,351.7,15.3,350.9,14.4z"/>
		<path class="st1" d="M383,32.4l-4.2-15.8h-0.1l-4,15.8H368l-7.4-23.5h6.8l4.3,15.9h0.1l3.9-15.9h6.3l4,15.9h0.1l4.3-15.9h6.6
			l-7.4,23.5H383z"/>
		<path class="st1" d="M412.6,8.9v4.3h-4.7v11.6c0,1.1,0.2,1.8,0.5,2.2s1.1,0.5,2.2,0.5c0.4,0,0.7,0,1,0c0.3,0,0.7-0.1,1-0.1v5
			c-0.5,0.1-1.2,0.2-1.8,0.2s-1.3,0-2,0c-1,0-1.9-0.1-2.8-0.2c-0.9-0.1-1.7-0.4-2.4-0.8c-0.7-0.4-1.2-1-1.6-1.7
			c-0.4-0.7-0.6-1.7-0.6-2.9V13.3h-3.9V8.9h3.9v-7h6.4v7H412.6z"/>
		<path class="st1" d="M415.9,15.6c0.6-1.5,1.4-2.8,2.5-3.9c1.1-1.1,2.3-1.9,3.8-2.5c1.5-0.6,3.1-0.9,5-0.9c1.8,0,3.5,0.3,5,0.9
			c1.5,0.6,2.8,1.4,3.8,2.5c1.1,1.1,1.9,2.4,2.5,3.9c0.6,1.5,0.9,3.2,0.9,5.1c0,1.9-0.3,3.6-0.9,5.1c-0.6,1.5-1.4,2.8-2.5,3.9
			c-1.1,1.1-2.3,1.9-3.8,2.5c-1.5,0.6-3.2,0.9-5,0.9c-1.8,0-3.5-0.3-5-0.9c-1.5-0.6-2.8-1.4-3.8-2.5c-1.1-1.1-1.9-2.4-2.5-3.9
			c-0.6-1.5-0.9-3.2-0.9-5.1C415,18.8,415.3,17.1,415.9,15.6z M421.7,23.5c0.2,0.9,0.5,1.7,0.9,2.4c0.4,0.7,1,1.3,1.7,1.7
			s1.6,0.6,2.7,0.6s2-0.2,2.7-0.6s1.3-1,1.8-1.7c0.4-0.7,0.8-1.5,0.9-2.4c0.2-0.9,0.3-1.8,0.3-2.7c0-0.9-0.1-1.9-0.3-2.8
			s-0.5-1.7-0.9-2.4c-0.4-0.7-1-1.3-1.8-1.7c-0.7-0.4-1.7-0.7-2.7-0.7s-2,0.2-2.7,0.7c-0.7,0.4-1.3,1-1.7,1.7
			c-0.4,0.7-0.8,1.5-0.9,2.4s-0.3,1.8-0.3,2.8C421.4,21.6,421.5,22.6,421.7,23.5z"/>
		<path class="st1" d="M449.6,8.9v3.3h0.1c0.8-1.4,1.9-2.4,3.2-3c1.3-0.6,2.6-0.9,4-0.9c1.7,0,3.1,0.2,4.2,0.7c1.1,0.5,2,1.1,2.6,2
			c0.6,0.8,1.1,1.8,1.3,3c0.3,1.2,0.4,2.5,0.4,4v14.4h-6.4V19.2c0-1.9-0.3-3.4-0.9-4.3c-0.6-1-1.7-1.4-3.2-1.4c-1.8,0-3,0.5-3.8,1.6
			c-0.8,1-1.2,2.8-1.2,5.2v12.3h-6.4V8.9H449.6z"/>
		<path class="st1" d="M490.8,0v32.4h-7.1V0H490.8z"/>
		<path class="st1" d="M502.6,8.9v3.3h0.1c0.8-1.4,1.9-2.4,3.2-3c1.3-0.6,2.6-0.9,4-0.9c1.7,0,3.1,0.2,4.2,0.7c1.1,0.5,2,1.1,2.6,2
			c0.6,0.8,1.1,1.8,1.3,3c0.3,1.2,0.4,2.5,0.4,4v14.4H512V19.2c0-1.9-0.3-3.4-0.9-4.3c-0.6-1-1.7-1.4-3.2-1.4c-1.8,0-3,0.5-3.8,1.6
			c-0.8,1-1.2,2.8-1.2,5.2v12.3h-6.4V8.9H502.6z"/>
		<path class="st1" d="M528.8,26.6c0.3,0.5,0.7,0.9,1.1,1.2c0.5,0.3,1,0.6,1.6,0.7c0.6,0.2,1.2,0.2,1.8,0.2c0.5,0,0.9-0.1,1.4-0.2
			c0.5-0.1,1-0.3,1.4-0.5c0.4-0.2,0.7-0.5,1-0.9c0.3-0.4,0.4-0.9,0.4-1.4c0-1-0.6-1.7-1.9-2.2c-1.3-0.5-3.1-1-5.4-1.5
			c-0.9-0.2-1.9-0.5-2.7-0.7c-0.9-0.3-1.7-0.7-2.4-1.1c-0.7-0.5-1.3-1.1-1.7-1.8c-0.4-0.7-0.6-1.6-0.6-2.6c0-1.5,0.3-2.8,0.9-3.7
			c0.6-1,1.4-1.7,2.3-2.3c1-0.6,2.1-1,3.3-1.2c1.2-0.2,2.5-0.3,3.7-0.3s2.5,0.1,3.7,0.4s2.3,0.7,3.2,1.2c0.9,0.6,1.7,1.3,2.3,2.3
			c0.6,1,1,2.2,1.1,3.6h-6.1c-0.1-1.2-0.6-2.1-1.4-2.5c-0.8-0.4-1.8-0.7-3-0.7c-0.4,0-0.8,0-1.2,0.1c-0.4,0-0.8,0.1-1.2,0.3
			c-0.3,0.2-0.6,0.4-0.9,0.7c-0.2,0.3-0.4,0.7-0.4,1.2c0,0.6,0.2,1,0.6,1.4c0.4,0.4,1,0.7,1.7,0.9c0.7,0.2,1.5,0.4,2.3,0.6
			c0.9,0.2,1.8,0.4,2.7,0.6c0.9,0.2,1.9,0.5,2.7,0.8c0.9,0.3,1.7,0.7,2.4,1.2c0.7,0.5,1.3,1.1,1.7,1.9c0.4,0.7,0.6,1.7,0.6,2.7
			c0,1.5-0.3,2.8-0.9,3.9c-0.6,1-1.4,1.9-2.4,2.5s-2.1,1.1-3.4,1.3c-1.3,0.3-2.6,0.4-3.9,0.4c-1.4,0-2.7-0.1-4-0.4s-2.5-0.7-3.5-1.4
			c-1-0.6-1.8-1.5-2.5-2.5c-0.7-1-1-2.4-1.1-3.9h6.1C528.4,25.5,528.5,26.1,528.8,26.6z"/>
		<path class="st1" d="M560.6,8.9v4.3h-4.7v11.6c0,1.1,0.2,1.8,0.5,2.2s1.1,0.5,2.2,0.5c0.4,0,0.7,0,1,0c0.3,0,0.7-0.1,1-0.1v5
			c-0.5,0.1-1.2,0.2-1.8,0.2s-1.3,0-2,0c-1,0-1.9-0.1-2.8-0.2c-0.9-0.1-1.7-0.4-2.4-0.8c-0.7-0.4-1.2-1-1.6-1.7
			c-0.4-0.7-0.6-1.7-0.6-2.9V13.3h-3.9V8.9h3.9v-7h6.4v7H560.6z"/>
		<path class="st1" d="M563.9,5.3V0h6.4v5.3H563.9z M570.4,8.9v23.5h-6.4V8.9H570.4z"/>
		<path class="st1" d="M588.4,8.9v4.3h-4.7v11.6c0,1.1,0.2,1.8,0.5,2.2s1.1,0.5,2.2,0.5c0.4,0,0.7,0,1,0c0.3,0,0.7-0.1,1-0.1v5
			c-0.5,0.1-1.2,0.2-1.8,0.2s-1.3,0-2,0c-1,0-1.9-0.1-2.8-0.2c-0.9-0.1-1.7-0.4-2.4-0.8c-0.7-0.4-1.2-1-1.6-1.7
			c-0.4-0.7-0.6-1.7-0.6-2.9V13.3h-3.9V8.9h3.9v-7h6.4v7H588.4z"/>
		<path class="st1" d="M607.3,32.4v-3.3h-0.1c-0.8,1.4-1.9,2.3-3.2,3c-1.3,0.6-2.6,0.9-4,0.9c-1.7,0-3.1-0.2-4.2-0.7
			c-1.1-0.5-2-1.1-2.6-1.9c-0.6-0.8-1.1-1.8-1.3-3c-0.3-1.2-0.4-2.5-0.4-4V8.9h6.4v13.3c0,1.9,0.3,3.4,0.9,4.3
			c0.6,1,1.7,1.4,3.2,1.4c1.8,0,3-0.5,3.8-1.6c0.8-1,1.2-2.8,1.2-5.2V8.9h6.4v23.5H607.3z"/>
		<path class="st1" d="M631.3,8.9v4.3h-4.7v11.6c0,1.1,0.2,1.8,0.5,2.2s1.1,0.5,2.2,0.5c0.4,0,0.7,0,1,0c0.3,0,0.7-0.1,1-0.1v5
			c-0.5,0.1-1.2,0.2-1.8,0.2s-1.3,0-2,0c-1,0-1.9-0.1-2.8-0.2c-0.9-0.1-1.7-0.4-2.4-0.8c-0.7-0.4-1.2-1-1.6-1.7
			c-0.4-0.7-0.6-1.7-0.6-2.9V13.3h-3.9V8.9h3.9v-7h6.4v7H631.3z"/>
		<path class="st1" d="M641.3,26.8c1,0.9,2.4,1.4,4.2,1.4c1.3,0,2.4-0.3,3.4-1c0.9-0.7,1.5-1.3,1.7-2.1h5.7c-0.9,2.8-2.3,4.8-4.2,6
			c-1.9,1.2-4.1,1.8-6.8,1.8c-1.8,0-3.5-0.3-5-0.9c-1.5-0.6-2.7-1.4-3.8-2.5c-1-1.1-1.8-2.4-2.4-3.9c-0.6-1.5-0.8-3.2-0.8-5
			c0-1.8,0.3-3.4,0.9-4.9c0.6-1.5,1.4-2.8,2.5-3.9c1.1-1.1,2.3-2,3.8-2.6s3.1-1,4.9-1c2,0,3.7,0.4,5.2,1.2c1.5,0.8,2.7,1.8,3.7,3.1
			c1,1.3,1.6,2.8,2.1,4.5c0.4,1.7,0.6,3.4,0.5,5.2h-16.9C639.8,24.3,640.3,25.9,641.3,26.8z M648.5,14.4c-0.8-0.8-1.9-1.3-3.5-1.3
			c-1,0-1.9,0.2-2.6,0.5c-0.7,0.3-1.2,0.8-1.6,1.3c-0.4,0.5-0.7,1.1-0.9,1.6c-0.2,0.6-0.3,1.1-0.3,1.5h10.5
			C649.9,16.5,649.3,15.3,648.5,14.4z"/>
		<path class="st1" d="M179.1,54.5v21h-2.9v-21h-4v-2.4h4V50c0-1,0.1-1.9,0.2-2.8s0.4-1.6,0.9-2.2c0.4-0.6,1-1.1,1.7-1.4
			c0.7-0.3,1.7-0.5,2.8-0.5c0.4,0,0.8,0,1.2,0c0.4,0,0.8,0.1,1.2,0.1v2.5c-0.4-0.1-0.8-0.1-1.1-0.2c-0.3,0-0.7-0.1-1-0.1
			c-0.8,0-1.4,0.1-1.8,0.4s-0.7,0.6-0.9,1c-0.2,0.4-0.3,0.9-0.3,1.4s0,1.1,0,1.8v2h4.6v2.4H179.1z"/>
		<path class="st1" d="M201.1,52.5c1.4,0.7,2.5,1.6,3.5,2.7c0.9,1.1,1.6,2.4,2.1,3.9c0.5,1.5,0.7,3.1,0.7,4.8c0,1.7-0.2,3.3-0.7,4.8
			c-0.5,1.5-1.2,2.8-2.1,3.9c-0.9,1.1-2.1,2-3.5,2.7c-1.4,0.7-3,1-4.7,1c-1.8,0-3.4-0.3-4.7-1c-1.4-0.7-2.5-1.5-3.5-2.7
			s-1.7-2.4-2.1-3.9c-0.5-1.5-0.7-3.1-0.7-4.8c0-1.7,0.2-3.3,0.7-4.8c0.5-1.5,1.2-2.8,2.1-3.9s2.1-2,3.5-2.7c1.4-0.7,3-1,4.7-1
			C198.1,51.5,199.7,51.8,201.1,52.5z M192.8,54.7c-1,0.6-1.9,1.3-2.6,2.3c-0.7,0.9-1.2,2-1.5,3.2c-0.3,1.2-0.5,2.4-0.5,3.7
			c0,1.2,0.2,2.5,0.5,3.7c0.3,1.2,0.9,2.3,1.5,3.2c0.7,0.9,1.5,1.7,2.6,2.3s2.2,0.9,3.6,0.9s2.6-0.3,3.6-0.9s1.9-1.3,2.6-2.3
			c0.7-0.9,1.2-2,1.5-3.2c0.3-1.2,0.5-2.4,0.5-3.7c0-1.2-0.2-2.5-0.5-3.7c-0.3-1.2-0.9-2.3-1.5-3.2c-0.7-0.9-1.5-1.7-2.6-2.3
			c-1-0.6-2.2-0.9-3.6-0.9S193.8,54.2,192.8,54.7z"/>
		<path class="st1" d="M214.3,52.1v5.5h0.1c0.7-1.9,1.9-3.4,3.4-4.4c1.5-1,3.4-1.5,5.5-1.4v2.9c-1.3-0.1-2.5,0.1-3.5,0.5
			c-1.1,0.4-2,1-2.7,1.7c-0.8,0.8-1.4,1.7-1.8,2.7c-0.4,1-0.6,2.2-0.6,3.4v12.5h-2.9V52.1H214.3z"/>
		<path class="st1" d="M243.6,43.1l10.8,28.4l11.2-28.4h4.5v32.4H267v-28h-0.1l-11.1,28h-2.9l-10.7-28h-0.1v28h-3.1V43.1H243.6z"/>
		<path class="st1" d="M276.5,55.8c0.5-1,1.1-1.8,2-2.5c0.8-0.6,1.8-1.1,2.9-1.4c1.1-0.3,2.4-0.5,3.7-0.5c1,0,2.1,0.1,3.1,0.3
			c1,0.2,2,0.6,2.8,1.1c0.8,0.5,1.5,1.3,2,2.3c0.5,1,0.8,2.3,0.8,3.8v12.4c0,1.2,0.6,1.7,1.7,1.7c0.3,0,0.6-0.1,0.9-0.2v2.4
			c-0.3,0.1-0.6,0.1-0.9,0.1c-0.3,0-0.6,0-1,0c-0.7,0-1.3-0.1-1.7-0.3s-0.8-0.5-1-0.8c-0.2-0.4-0.4-0.8-0.5-1.3
			c-0.1-0.5-0.1-1.1-0.1-1.7h-0.1c-0.5,0.8-1,1.4-1.6,2c-0.5,0.6-1.1,1.1-1.8,1.5c-0.7,0.4-1.4,0.7-2.2,0.9c-0.8,0.2-1.8,0.3-3,0.3
			c-1.1,0-2.1-0.1-3.1-0.4c-1-0.3-1.8-0.7-2.5-1.2c-0.7-0.6-1.3-1.3-1.7-2.1c-0.4-0.9-0.6-1.9-0.6-3.1c0-1.6,0.4-2.9,1.1-3.8
			c0.7-0.9,1.7-1.6,2.9-2.1c1.2-0.5,2.5-0.8,4-1c1.5-0.2,3-0.4,4.6-0.6c0.6-0.1,1.1-0.1,1.6-0.2c0.5-0.1,0.8-0.2,1.1-0.5
			s0.5-0.5,0.7-0.9c0.2-0.4,0.2-0.9,0.2-1.5c0-1-0.2-1.8-0.5-2.4c-0.3-0.6-0.8-1.1-1.3-1.5c-0.6-0.4-1.2-0.6-2-0.7
			c-0.7-0.1-1.5-0.2-2.4-0.2c-1.8,0-3.3,0.4-4.5,1.3c-1.2,0.9-1.8,2.2-1.8,4.2h-2.9C275.7,58,276,56.8,276.5,55.8z M290.8,62.8
			c-0.2,0.3-0.5,0.6-1,0.7c-0.5,0.2-1,0.3-1.4,0.3c-1.2,0.2-2.5,0.4-3.7,0.6c-1.3,0.2-2.5,0.4-3.5,0.7c-1.1,0.3-1.9,0.8-2.6,1.4
			c-0.7,0.6-1,1.5-1,2.7c0,0.7,0.1,1.4,0.4,1.9c0.3,0.6,0.7,1,1.2,1.5c0.5,0.4,1,0.7,1.7,0.9c0.6,0.2,1.3,0.3,2,0.3
			c1.1,0,2.1-0.2,3.1-0.5c1-0.3,1.9-0.8,2.6-1.5c0.7-0.6,1.3-1.4,1.8-2.3c0.4-0.9,0.7-1.9,0.7-3.1L290.8,62.8L290.8,62.8z"/>
		<path class="st1" d="M308.8,52.1v2.4H304v15.8c0,0.9,0.1,1.7,0.4,2.2c0.3,0.5,0.9,0.8,1.9,0.9c0.8,0,1.6,0,2.5-0.1v2.4
			c-0.4,0-0.8,0-1.3,0s-0.8,0-1.3,0c-1.9,0-3.2-0.4-4-1.1c-0.8-0.7-1.1-2.1-1.1-4.1v-16h-4.1v-2.4h4.1v-7h2.9v7H308.8z"/>
		<path class="st1" d="M315.8,43.1v13h0.1c0.5-1.4,1.5-2.6,2.9-3.4c1.4-0.9,2.9-1.3,4.6-1.3c1.6,0,3,0.2,4.1,0.6s2,1,2.7,1.8
			c0.7,0.8,1.1,1.7,1.4,2.8s0.4,2.4,0.4,3.8v15.1h-2.9V61c0-1-0.1-1.9-0.3-2.8c-0.2-0.9-0.5-1.6-1-2.2c-0.5-0.6-1.1-1.1-1.8-1.5
			c-0.8-0.4-1.7-0.5-2.9-0.5c-1.2,0-2.2,0.2-3.1,0.6c-0.9,0.4-1.7,1-2.3,1.7c-0.6,0.7-1.1,1.6-1.5,2.5c-0.3,1-0.5,2.1-0.6,3.2v13.7
			h-2.9V43.1H315.8z"/>
		<path class="st1" d="M339.4,67.8c0.3,1.1,0.7,2.1,1.4,3c0.6,0.9,1.4,1.6,2.4,2.2s2.1,0.9,3.5,0.9c2.1,0,3.7-0.5,4.9-1.6
			c1.2-1.1,2-2.5,2.5-4.4h2.9c-0.6,2.7-1.7,4.7-3.3,6.2s-3.9,2.2-6.9,2.2c-1.8,0-3.4-0.3-4.8-1c-1.3-0.7-2.4-1.5-3.3-2.7
			c-0.8-1.1-1.5-2.5-1.9-4c-0.4-1.5-0.6-3.1-0.6-4.7c0-1.5,0.2-3.1,0.6-4.5c0.4-1.5,1-2.8,1.9-4c0.8-1.2,1.9-2.1,3.3-2.8
			c1.3-0.7,2.9-1.1,4.8-1.1c1.9,0,3.5,0.4,4.8,1.1c1.3,0.8,2.4,1.7,3.2,3c0.8,1.2,1.4,2.6,1.8,4.2c0.4,1.6,0.5,3.2,0.5,4.8h-18
			C339,65.7,339.2,66.7,339.4,67.8z M353.6,59.1c-0.3-1-0.8-1.9-1.5-2.7c-0.6-0.8-1.4-1.4-2.3-1.9c-0.9-0.5-1.9-0.7-3.1-0.7
			c-1.2,0-2.2,0.2-3.1,0.7c-0.9,0.5-1.7,1.1-2.3,1.9c-0.6,0.8-1.1,1.7-1.5,2.7c-0.4,1-0.6,2.1-0.8,3.1h15.2
			C354.2,61.1,354,60.1,353.6,59.1z"/>
		<path class="st1" d="M363.5,52.1v4h0.1c0.8-1.5,1.7-2.6,3-3.4c1.2-0.8,2.8-1.2,4.7-1.2c1.5,0,2.9,0.4,4.2,1.1
			c1.3,0.8,2.1,1.9,2.5,3.5c0.7-1.5,1.7-2.7,3.1-3.5c1.4-0.8,2.8-1.1,4.4-1.1c5.2,0,7.8,2.7,7.8,8.2v15.9h-2.9V59.8
			c0-1.9-0.4-3.4-1.2-4.4c-0.8-1-2.3-1.5-4.3-1.5c-1.2,0-2.3,0.2-3.1,0.7c-0.8,0.5-1.5,1.1-2,1.9c-0.5,0.8-0.8,1.7-1,2.7
			c-0.2,1-0.3,2.1-0.3,3.2v13.3h-2.9V59.7c0-0.8-0.1-1.5-0.2-2.2c-0.2-0.7-0.4-1.3-0.8-1.9s-0.9-0.9-1.5-1.2s-1.4-0.5-2.3-0.5
			c-1.2,0-2.3,0.2-3.2,0.7c-0.9,0.4-1.6,1-2.2,1.8c-0.6,0.8-1,1.7-1.2,2.7c-0.3,1-0.4,2.2-0.4,3.4v13.1h-2.9V52.1H363.5z"/>
		<path class="st1" d="M399.3,55.8c0.5-1,1.1-1.8,2-2.5c0.8-0.6,1.8-1.1,2.9-1.4c1.1-0.3,2.4-0.5,3.7-0.5c1,0,2.1,0.1,3.1,0.3
			c1,0.2,2,0.6,2.8,1.1c0.8,0.5,1.5,1.3,2,2.3c0.5,1,0.8,2.3,0.8,3.8v12.4c0,1.2,0.6,1.7,1.7,1.7c0.3,0,0.6-0.1,0.9-0.2v2.4
			c-0.3,0.1-0.6,0.1-0.9,0.1c-0.3,0-0.6,0-1,0c-0.7,0-1.3-0.1-1.7-0.3s-0.8-0.5-1-0.8c-0.2-0.4-0.4-0.8-0.5-1.3
			c-0.1-0.5-0.1-1.1-0.1-1.7h-0.1c-0.5,0.8-1,1.4-1.6,2c-0.5,0.6-1.1,1.1-1.8,1.5c-0.7,0.4-1.4,0.7-2.2,0.9c-0.8,0.2-1.8,0.3-3,0.3
			c-1.1,0-2.1-0.1-3.1-0.4c-1-0.3-1.8-0.7-2.5-1.2c-0.7-0.6-1.3-1.3-1.7-2.1c-0.4-0.9-0.6-1.9-0.6-3.1c0-1.6,0.4-2.9,1.1-3.8
			c0.7-0.9,1.7-1.6,2.9-2.1c1.2-0.5,2.5-0.8,4-1c1.5-0.2,3-0.4,4.6-0.6c0.6-0.1,1.1-0.1,1.6-0.2c0.5-0.1,0.8-0.2,1.1-0.5
			s0.5-0.5,0.7-0.9c0.2-0.4,0.2-0.9,0.2-1.5c0-1-0.2-1.8-0.5-2.4c-0.3-0.6-0.8-1.1-1.3-1.5c-0.6-0.4-1.2-0.6-2-0.7
			c-0.7-0.1-1.5-0.2-2.4-0.2c-1.8,0-3.3,0.4-4.5,1.3c-1.2,0.9-1.8,2.2-1.8,4.2h-2.9C398.6,58,398.8,56.8,399.3,55.8z M413.6,62.8
			c-0.2,0.3-0.5,0.6-1,0.7c-0.5,0.2-1,0.3-1.4,0.3c-1.2,0.2-2.5,0.4-3.7,0.6c-1.3,0.2-2.5,0.4-3.5,0.7c-1.1,0.3-1.9,0.8-2.6,1.4
			c-0.7,0.6-1,1.5-1,2.7c0,0.7,0.1,1.4,0.4,1.9c0.3,0.6,0.7,1,1.2,1.5c0.5,0.4,1,0.7,1.7,0.9c0.6,0.2,1.3,0.3,2,0.3
			c1.1,0,2.1-0.2,3.1-0.5c1-0.3,1.9-0.8,2.6-1.5c0.7-0.6,1.3-1.4,1.8-2.3c0.4-0.9,0.7-1.9,0.7-3.1L413.6,62.8L413.6,62.8z"/>
		<path class="st1" d="M431.6,52.1v2.4h-4.8v15.8c0,0.9,0.1,1.7,0.4,2.2c0.3,0.5,0.9,0.8,1.9,0.9c0.8,0,1.6,0,2.5-0.1v2.4
			c-0.4,0-0.8,0-1.3,0s-0.8,0-1.3,0c-1.9,0-3.2-0.4-4-1.1c-0.8-0.7-1.1-2.1-1.1-4.1v-16h-4.1v-2.4h4.1v-7h2.9v7H431.6z"/>
		<path class="st1" d="M438.7,43.1v4.6h-2.9v-4.6H438.7z M438.7,52.1v23.4h-2.9V52.1H438.7z"/>
		<path class="st1" d="M458.5,55.4c-1.1-1-2.5-1.5-4.5-1.5c-1.4,0-2.6,0.3-3.6,0.9c-1,0.6-1.9,1.3-2.6,2.3c-0.7,0.9-1.2,2-1.5,3.2
			c-0.3,1.2-0.5,2.4-0.5,3.7c0,1.2,0.2,2.5,0.5,3.7c0.3,1.2,0.9,2.3,1.5,3.2c0.7,0.9,1.5,1.7,2.6,2.3s2.2,0.9,3.6,0.9
			c0.9,0,1.7-0.2,2.5-0.5c0.8-0.3,1.5-0.8,2.1-1.4c0.6-0.6,1.1-1.3,1.5-2.1s0.6-1.7,0.7-2.7h2.9c-0.4,2.8-1.4,5.1-3.1,6.7
			c-1.7,1.6-3.9,2.4-6.5,2.4c-1.8,0-3.4-0.3-4.7-1c-1.4-0.7-2.5-1.5-3.5-2.7s-1.7-2.4-2.1-3.9c-0.5-1.5-0.7-3.1-0.7-4.8
			c0-1.7,0.2-3.3,0.7-4.8c0.5-1.5,1.2-2.8,2.1-3.9s2.1-2,3.5-2.7c1.4-0.7,3-1,4.7-1c2.5,0,4.6,0.7,6.4,2c1.7,1.3,2.8,3.3,3.1,6h-2.9
			C460.3,57.7,459.6,56.4,458.5,55.4z"/>
		<path class="st1" d="M468.3,55.8c0.5-1,1.1-1.8,2-2.5c0.8-0.6,1.8-1.1,2.9-1.4c1.1-0.3,2.4-0.5,3.7-0.5c1,0,2.1,0.1,3.1,0.3
			c1,0.2,2,0.6,2.8,1.1c0.8,0.5,1.5,1.3,2,2.3c0.5,1,0.8,2.3,0.8,3.8v12.4c0,1.2,0.6,1.7,1.7,1.7c0.3,0,0.6-0.1,0.9-0.2v2.4
			c-0.3,0.1-0.6,0.1-0.9,0.1c-0.3,0-0.6,0-1,0c-0.7,0-1.3-0.1-1.7-0.3s-0.8-0.5-1-0.8c-0.2-0.4-0.4-0.8-0.5-1.3
			c-0.1-0.5-0.1-1.1-0.1-1.7h-0.1c-0.5,0.8-1,1.4-1.6,2c-0.5,0.6-1.1,1.1-1.8,1.5c-0.7,0.4-1.4,0.7-2.2,0.9c-0.8,0.2-1.8,0.3-3,0.3
			c-1.1,0-2.1-0.1-3.1-0.4c-1-0.3-1.8-0.7-2.5-1.2c-0.7-0.6-1.3-1.3-1.7-2.1c-0.4-0.9-0.6-1.9-0.6-3.1c0-1.6,0.4-2.9,1.1-3.8
			c0.7-0.9,1.7-1.6,2.9-2.1c1.2-0.5,2.5-0.8,4-1c1.5-0.2,3-0.4,4.6-0.6c0.6-0.1,1.1-0.1,1.6-0.2c0.5-0.1,0.8-0.2,1.1-0.5
			s0.5-0.5,0.7-0.9c0.2-0.4,0.2-0.9,0.2-1.5c0-1-0.2-1.8-0.5-2.4c-0.3-0.6-0.8-1.1-1.3-1.5c-0.6-0.4-1.2-0.6-2-0.7
			c-0.7-0.1-1.5-0.2-2.4-0.2c-1.8,0-3.3,0.4-4.5,1.3c-1.2,0.9-1.8,2.2-1.8,4.2h-2.9C467.5,58,467.8,56.8,468.3,55.8z M482.6,62.8
			c-0.2,0.3-0.5,0.6-1,0.7c-0.5,0.2-1,0.3-1.4,0.3c-1.2,0.2-2.5,0.4-3.7,0.6c-1.3,0.2-2.5,0.4-3.5,0.7c-1.1,0.3-1.9,0.8-2.6,1.4
			c-0.7,0.6-1,1.5-1,2.7c0,0.7,0.1,1.4,0.4,1.9c0.3,0.6,0.7,1,1.2,1.5c0.5,0.4,1,0.7,1.7,0.9c0.6,0.2,1.3,0.3,2,0.3
			c1.1,0,2.1-0.2,3.1-0.5c1-0.3,1.9-0.8,2.6-1.5c0.7-0.6,1.3-1.4,1.8-2.3c0.4-0.9,0.7-1.9,0.7-3.1L482.6,62.8L482.6,62.8z"/>
		<path class="st1" d="M494.2,43.1v32.4h-2.9V43.1H494.2z"/>
		<path class="st1" d="M515.1,69.1c0.5,1.1,1.3,2,2.2,2.7c1,0.7,2.1,1.1,3.4,1.4c1.3,0.3,2.7,0.4,4.2,0.4c0.8,0,1.8-0.1,2.8-0.4
			c1-0.2,1.9-0.6,2.8-1.2c0.9-0.5,1.6-1.2,2.2-2c0.6-0.8,0.9-1.8,0.9-3c0-0.9-0.2-1.7-0.6-2.4c-0.4-0.7-0.9-1.2-1.6-1.7
			c-0.7-0.5-1.4-0.8-2.2-1.1c-0.8-0.3-1.6-0.5-2.3-0.7l-7.2-1.8c-0.9-0.2-1.9-0.5-2.7-0.9c-0.9-0.4-1.7-0.8-2.3-1.5
			c-0.7-0.6-1.2-1.3-1.6-2.2c-0.4-0.9-0.6-2-0.6-3.2c0-0.8,0.2-1.7,0.5-2.8c0.3-1.1,0.9-2.1,1.7-3c0.8-0.9,2-1.7,3.4-2.4
			c1.5-0.7,3.3-1,5.6-1c1.6,0,3.1,0.2,4.6,0.6c1.5,0.4,2.7,1.1,3.8,1.9c1.1,0.8,2,1.9,2.6,3.2c0.7,1.3,1,2.7,1,4.4h-3.1
			c-0.1-1.2-0.3-2.3-0.8-3.2c-0.5-0.9-1.2-1.7-2-2.3c-0.8-0.6-1.7-1.1-2.8-1.4s-2.1-0.5-3.3-0.5c-1.1,0-2.1,0.1-3.1,0.3
			c-1,0.2-1.8,0.6-2.6,1.1c-0.7,0.5-1.3,1.2-1.8,2s-0.7,1.8-0.7,3c0,0.8,0.1,1.4,0.4,2c0.3,0.6,0.6,1,1.1,1.4s1,0.7,1.6,1
			c0.6,0.2,1.2,0.4,1.9,0.6l7.9,2c1.2,0.3,2.2,0.7,3.2,1.1c1,0.4,1.9,1,2.7,1.6c0.8,0.7,1.4,1.4,1.8,2.4c0.4,0.9,0.7,2.1,0.7,3.4
			c0,0.4,0,0.8-0.1,1.5c-0.1,0.6-0.3,1.2-0.5,1.9c-0.3,0.7-0.7,1.4-1.2,2.1c-0.5,0.7-1.3,1.3-2.2,1.9c-0.9,0.6-2.1,1-3.4,1.4
			c-1.4,0.3-3,0.5-4.9,0.5c-1.9,0-3.7-0.2-5.3-0.7c-1.6-0.4-3-1.1-4.2-2c-1.2-0.9-2-2.1-2.7-3.5c-0.6-1.4-0.9-3.1-0.8-5.1h3.1
			C514.3,66.6,514.5,68,515.1,69.1z"/>
		<path class="st1" d="M555.3,55.4c-1.1-1-2.5-1.5-4.5-1.5c-1.4,0-2.6,0.3-3.6,0.9c-1,0.6-1.9,1.3-2.6,2.3c-0.7,0.9-1.2,2-1.5,3.2
			c-0.3,1.2-0.5,2.4-0.5,3.7c0,1.2,0.2,2.5,0.5,3.7c0.3,1.2,0.9,2.3,1.5,3.2c0.7,0.9,1.5,1.7,2.6,2.3s2.2,0.9,3.6,0.9
			c0.9,0,1.7-0.2,2.5-0.5c0.8-0.3,1.5-0.8,2.1-1.4c0.6-0.6,1.1-1.3,1.5-2.1s0.6-1.7,0.7-2.7h2.9c-0.4,2.8-1.4,5.1-3.1,6.7
			c-1.7,1.6-3.9,2.4-6.5,2.4c-1.8,0-3.4-0.3-4.7-1c-1.4-0.7-2.5-1.5-3.5-2.7s-1.7-2.4-2.1-3.9c-0.5-1.5-0.7-3.1-0.7-4.8
			c0-1.7,0.2-3.3,0.7-4.8c0.5-1.5,1.2-2.8,2.1-3.9s2.1-2,3.5-2.7c1.4-0.7,3-1,4.7-1c2.5,0,4.6,0.7,6.4,2c1.7,1.3,2.8,3.3,3.1,6h-2.9
			C557.1,57.7,556.3,56.4,555.3,55.4z"/>
		<path class="st1" d="M567.4,43.1v4.6h-2.9v-4.6H567.4z M567.4,52.1v23.4h-2.9V52.1H567.4z"/>
		<path class="st1" d="M575,67.8c0.3,1.1,0.7,2.1,1.4,3c0.6,0.9,1.4,1.6,2.4,2.2s2.1,0.9,3.5,0.9c2.1,0,3.7-0.5,4.9-1.6
			c1.2-1.1,2-2.5,2.5-4.4h2.9c-0.6,2.7-1.7,4.7-3.3,6.2s-3.9,2.2-6.9,2.2c-1.8,0-3.4-0.3-4.8-1c-1.3-0.7-2.4-1.5-3.3-2.7
			c-0.8-1.1-1.5-2.5-1.9-4c-0.4-1.5-0.6-3.1-0.6-4.7c0-1.5,0.2-3.1,0.6-4.5c0.4-1.5,1-2.8,1.9-4c0.8-1.2,1.9-2.1,3.3-2.8
			c1.3-0.7,2.9-1.1,4.8-1.1c1.9,0,3.5,0.4,4.8,1.1c1.3,0.8,2.4,1.7,3.2,3c0.8,1.2,1.4,2.6,1.8,4.2c0.4,1.6,0.5,3.2,0.5,4.8h-18
			C574.6,65.7,574.7,66.7,575,67.8z M589.2,59.1c-0.3-1-0.8-1.9-1.5-2.7c-0.6-0.8-1.4-1.4-2.3-1.9c-0.9-0.5-1.9-0.7-3.1-0.7
			c-1.2,0-2.2,0.2-3.1,0.7c-0.9,0.5-1.7,1.1-2.3,1.9c-0.6,0.8-1.1,1.7-1.5,2.7c-0.4,1-0.6,2.1-0.8,3.1h15.2
			C589.7,61.1,589.5,60.1,589.2,59.1z"/>
		<path class="st1" d="M599.3,52.1v4h0.1c0.5-1.4,1.5-2.6,2.9-3.4c1.4-0.9,2.9-1.3,4.6-1.3c1.6,0,3,0.2,4.1,0.6s2,1,2.7,1.8
			c0.7,0.8,1.1,1.7,1.4,2.8s0.4,2.4,0.4,3.8v15.1h-2.9V61c0-1-0.1-1.9-0.3-2.8c-0.2-0.9-0.5-1.6-1-2.2c-0.5-0.6-1.1-1.1-1.8-1.5
			c-0.8-0.4-1.7-0.5-2.9-0.5c-1.2,0-2.2,0.2-3.1,0.6c-0.9,0.4-1.7,1-2.3,1.7c-0.6,0.7-1.1,1.6-1.5,2.5c-0.3,1-0.5,2.1-0.6,3.2v13.7
			h-2.9V52.1H599.3z"/>
		<path class="st1" d="M635.2,55.4c-1.1-1-2.5-1.5-4.5-1.5c-1.4,0-2.6,0.3-3.6,0.9c-1,0.6-1.9,1.3-2.6,2.3c-0.7,0.9-1.2,2-1.5,3.2
			c-0.3,1.2-0.5,2.4-0.5,3.7c0,1.2,0.2,2.5,0.5,3.7c0.3,1.2,0.9,2.3,1.5,3.2c0.7,0.9,1.5,1.7,2.6,2.3s2.2,0.9,3.6,0.9
			c0.9,0,1.7-0.2,2.5-0.5c0.8-0.3,1.5-0.8,2.1-1.4c0.6-0.6,1.1-1.3,1.5-2.1s0.6-1.7,0.7-2.7h2.9c-0.4,2.8-1.4,5.1-3.1,6.7
			c-1.7,1.6-3.9,2.4-6.5,2.4c-1.8,0-3.4-0.3-4.7-1c-1.4-0.7-2.5-1.5-3.5-2.7s-1.7-2.4-2.1-3.9c-0.5-1.5-0.7-3.1-0.7-4.8
			c0-1.7,0.2-3.3,0.7-4.8c0.5-1.5,1.2-2.8,2.1-3.9s2.1-2,3.5-2.7c1.4-0.7,3-1,4.7-1c2.5,0,4.6,0.7,6.4,2c1.7,1.3,2.8,3.3,3.1,6h-2.9
			C637,57.7,636.3,56.4,635.2,55.4z"/>
		<path class="st1" d="M646.6,67.8c0.3,1.1,0.7,2.1,1.4,3c0.6,0.9,1.4,1.6,2.4,2.2s2.1,0.9,3.5,0.9c2.1,0,3.7-0.5,4.9-1.6
			c1.2-1.1,2-2.5,2.5-4.4h2.9c-0.6,2.7-1.7,4.7-3.3,6.2s-3.9,2.2-6.9,2.2c-1.8,0-3.4-0.3-4.8-1c-1.3-0.7-2.4-1.5-3.3-2.7
			c-0.8-1.1-1.5-2.5-1.9-4c-0.4-1.5-0.6-3.1-0.6-4.7c0-1.5,0.2-3.1,0.6-4.5c0.4-1.5,1-2.8,1.9-4c0.8-1.2,1.9-2.1,3.3-2.8
			c1.3-0.7,2.9-1.1,4.8-1.1c1.9,0,3.5,0.4,4.8,1.1c1.3,0.8,2.4,1.7,3.2,3c0.8,1.2,1.4,2.6,1.8,4.2c0.4,1.6,0.5,3.2,0.5,4.8h-18
			C646.1,65.7,646.3,66.7,646.6,67.8z M660.7,59.1c-0.3-1-0.8-1.9-1.5-2.7c-0.6-0.8-1.4-1.4-2.3-1.9c-0.9-0.5-1.9-0.7-3.1-0.7
			c-1.2,0-2.2,0.2-3.1,0.7c-0.9,0.5-1.7,1.1-2.3,1.9c-0.6,0.8-1.1,1.7-1.5,2.7c-0.4,1-0.6,2.1-0.8,3.1h15.2
			C661.3,61.1,661.1,60.1,660.7,59.1z"/>
		<path class="st1" d="M681.5,56.7c-0.3-0.7-0.8-1.2-1.3-1.6c-0.6-0.4-1.2-0.7-1.9-0.9c-0.7-0.2-1.5-0.3-2.3-0.3
			c-0.6,0-1.3,0.1-1.9,0.2c-0.7,0.1-1.2,0.4-1.8,0.7c-0.5,0.3-1,0.7-1.3,1.2c-0.3,0.5-0.5,1.2-0.5,1.9c0,0.6,0.2,1.2,0.5,1.6
			c0.3,0.4,0.7,0.8,1.2,1.1c0.5,0.3,1,0.6,1.6,0.8s1.1,0.4,1.6,0.5l3.8,0.9c0.8,0.1,1.6,0.3,2.4,0.7c0.8,0.3,1.5,0.7,2.1,1.2
			c0.6,0.5,1.1,1.2,1.5,1.9c0.4,0.8,0.6,1.7,0.6,2.7c0,1.3-0.3,2.4-0.9,3.2c-0.6,0.9-1.3,1.6-2.2,2.2c-0.9,0.6-1.9,1-3,1.2
			s-2.2,0.4-3.3,0.4c-2.8,0-5-0.7-6.7-2c-1.7-1.3-2.7-3.4-2.9-6.3h2.9c0.1,1.9,0.8,3.4,2.1,4.4c1.3,1,2.9,1.5,4.8,1.5
			c0.7,0,1.4-0.1,2.2-0.2c0.7-0.2,1.4-0.4,2.1-0.8s1.2-0.8,1.6-1.4c0.4-0.6,0.6-1.2,0.6-2.1c0-0.7-0.1-1.3-0.4-1.7s-0.7-0.9-1.2-1.2
			c-0.5-0.3-1-0.6-1.7-0.8c-0.6-0.2-1.2-0.4-1.9-0.5l-3.7-0.8c-0.9-0.2-1.8-0.5-2.6-0.8c-0.8-0.3-1.5-0.7-2.1-1.2
			c-0.6-0.5-1.1-1-1.4-1.7c-0.3-0.7-0.5-1.5-0.5-2.5c0-1.2,0.3-2.2,0.8-3c0.5-0.8,1.2-1.5,2.1-2c0.8-0.5,1.8-0.9,2.8-1.1
			c1-0.2,2.1-0.4,3.1-0.4c1.2,0,2.3,0.2,3.3,0.5c1,0.3,1.9,0.8,2.7,1.4c0.8,0.6,1.4,1.4,1.8,2.4c0.5,0.9,0.7,2,0.8,3.3H682
			C682,58.1,681.8,57.4,681.5,56.7z"/>
	</g>
	<g>
		<rect x="30.2" y="0" class="st0" width="15.6" height="75.8"/>
		<polygon class="st0" points="60.9,25.4 60.9,75.8 90.3,75.8 		"/>
		<polygon class="st0" points="61.2,0 91.1,51.3 91.1,0 		"/>
		<rect y="0" class="st0" width="15.1" height="75.8"/>
		<rect x="106.2" y="0" class="st0" width="15.1" height="75.8"/>
		<rect x="136.4" y="0" class="st0" width="15.1" height="75.8"/>
	</g>
	<g>
		<path class="st1" d="M182.2,0v32.4h-7.1V0H182.2z"/>
		<path class="st1" d="M193.3,26.6c0.3,0.5,0.7,0.9,1.1,1.2c0.5,0.3,1,0.6,1.6,0.7c0.6,0.2,1.2,0.2,1.8,0.2c0.5,0,0.9-0.1,1.4-0.2
			c0.5-0.1,1-0.3,1.4-0.5c0.4-0.2,0.7-0.5,1-0.9c0.3-0.4,0.4-0.9,0.4-1.4c0-1-0.6-1.7-1.9-2.2c-1.3-0.5-3.1-1-5.4-1.5
			c-0.9-0.2-1.9-0.5-2.7-0.7c-0.9-0.3-1.7-0.7-2.4-1.1c-0.7-0.5-1.3-1.1-1.7-1.8c-0.4-0.7-0.6-1.6-0.6-2.6c0-1.5,0.3-2.8,0.9-3.7
			c0.6-1,1.4-1.7,2.3-2.3c1-0.6,2.1-1,3.3-1.2c1.2-0.2,2.5-0.3,3.7-0.3s2.5,0.1,3.7,0.4s2.3,0.7,3.2,1.2c0.9,0.6,1.7,1.3,2.3,2.3
			c0.6,1,1,2.2,1.1,3.6h-6.1c-0.1-1.2-0.6-2.1-1.4-2.5c-0.8-0.4-1.8-0.7-3-0.7c-0.4,0-0.8,0-1.2,0.1c-0.4,0-0.8,0.1-1.2,0.3
			c-0.3,0.2-0.6,0.4-0.9,0.7c-0.2,0.3-0.4,0.7-0.4,1.2c0,0.6,0.2,1,0.6,1.4c0.4,0.4,1,0.7,1.7,0.9c0.7,0.2,1.5,0.4,2.3,0.6
			c0.9,0.2,1.8,0.4,2.7,0.6c0.9,0.2,1.9,0.5,2.7,0.8c0.9,0.3,1.7,0.7,2.4,1.2c0.7,0.5,1.3,1.1,1.7,1.9c0.4,0.7,0.6,1.7,0.6,2.7
			c0,1.5-0.3,2.8-0.9,3.9c-0.6,1-1.4,1.9-2.4,2.5s-2.1,1.1-3.4,1.3c-1.3,0.3-2.6,0.4-3.9,0.4c-1.4,0-2.7-0.1-4-0.4s-2.5-0.7-3.5-1.4
			c-1-0.6-1.8-1.5-2.5-2.5c-0.7-1-1-2.4-1.1-3.9h6.1C192.8,25.5,193,26.1,193.3,26.6z"/>
		<path class="st1" d="M211.9,16.2c0.1-1.5,0.5-2.8,1.1-3.8c0.7-1,1.5-1.8,2.5-2.4c1-0.6,2.2-1,3.5-1.3c1.3-0.3,2.6-0.4,3.9-0.4
			c1.2,0,2.4,0.1,3.6,0.2c1.2,0.2,2.3,0.5,3.3,1c1,0.5,1.8,1.2,2.5,2s1,2,1,3.4v12.2c0,1.1,0.1,2.1,0.2,3c0.1,1,0.3,1.7,0.6,2.2
			h-6.5c-0.1-0.4-0.2-0.7-0.3-1.1c-0.1-0.4-0.1-0.8-0.2-1.2c-1,1.1-2.2,1.8-3.6,2.2c-1.4,0.4-2.8,0.6-4.3,0.6
			c-1.1,0-2.2-0.1-3.1-0.4s-1.8-0.7-2.5-1.3s-1.3-1.3-1.7-2.2c-0.4-0.9-0.6-1.9-0.6-3.1c0-1.3,0.2-2.4,0.7-3.3
			c0.5-0.9,1.1-1.6,1.8-2.1s1.6-0.9,2.5-1.2c1-0.3,1.9-0.5,2.9-0.6c1-0.2,1.9-0.3,2.9-0.4s1.8-0.2,2.5-0.4s1.3-0.4,1.7-0.8
			c0.4-0.3,0.6-0.9,0.6-1.5c0-0.7-0.1-1.2-0.3-1.7c-0.2-0.4-0.5-0.7-0.9-1c-0.4-0.2-0.8-0.4-1.3-0.5c-0.5-0.1-1-0.1-1.6-0.1
			c-1.3,0-2.3,0.3-3,0.8c-0.7,0.5-1.2,1.5-1.3,2.7H211.9z M226.8,20.9c-0.3,0.2-0.6,0.4-1,0.6c-0.4,0.1-0.8,0.2-1.3,0.3
			c-0.5,0.1-1,0.2-1.5,0.2c-0.5,0.1-1,0.1-1.5,0.2c-0.5,0.1-1,0.2-1.4,0.4c-0.5,0.2-0.9,0.4-1.2,0.6c-0.3,0.3-0.6,0.6-0.8,1
			c-0.2,0.4-0.3,0.9-0.3,1.5c0,0.6,0.1,1.1,0.3,1.5c0.2,0.4,0.5,0.7,0.9,0.9c0.4,0.2,0.8,0.4,1.3,0.5c0.5,0.1,1,0.1,1.5,0.1
			c1.3,0,2.3-0.2,3-0.6s1.2-0.9,1.5-1.5c0.3-0.6,0.5-1.2,0.6-1.8s0.1-1.1,0.1-1.5V20.9z"/>
		<path class="st1" d="M238,16.2c0.1-1.5,0.5-2.8,1.1-3.8c0.7-1,1.5-1.8,2.5-2.4c1-0.6,2.2-1,3.5-1.3c1.3-0.3,2.6-0.4,3.9-0.4
			c1.2,0,2.4,0.1,3.6,0.2c1.2,0.2,2.3,0.5,3.3,1c1,0.5,1.8,1.2,2.5,2s1,2,1,3.4v12.2c0,1.1,0.1,2.1,0.2,3c0.1,1,0.3,1.7,0.6,2.2
			h-6.5c-0.1-0.4-0.2-0.7-0.3-1.1c-0.1-0.4-0.1-0.8-0.2-1.2c-1,1.1-2.2,1.8-3.6,2.2c-1.4,0.4-2.8,0.6-4.3,0.6
			c-1.1,0-2.2-0.1-3.1-0.4s-1.8-0.7-2.5-1.3s-1.3-1.3-1.7-2.2c-0.4-0.9-0.6-1.9-0.6-3.1c0-1.3,0.2-2.4,0.7-3.3
			c0.5-0.9,1.1-1.6,1.8-2.1s1.6-0.9,2.5-1.2c1-0.3,1.9-0.5,2.9-0.6c1-0.2,1.9-0.3,2.9-0.4s1.8-0.2,2.5-0.4s1.3-0.4,1.7-0.8
			c0.4-0.3,0.6-0.9,0.6-1.5c0-0.7-0.1-1.2-0.3-1.7c-0.2-0.4-0.5-0.7-0.9-1c-0.4-0.2-0.8-0.4-1.3-0.5c-0.5-0.1-1-0.1-1.6-0.1
			c-1.3,0-2.3,0.3-3,0.8c-0.7,0.5-1.2,1.5-1.3,2.7H238z M252.9,20.9c-0.3,0.2-0.6,0.4-1,0.6c-0.4,0.1-0.8,0.2-1.3,0.3
			c-0.5,0.1-1,0.2-1.5,0.2c-0.5,0.1-1,0.1-1.5,0.2c-0.5,0.1-1,0.2-1.4,0.4c-0.5,0.2-0.9,0.4-1.2,0.6c-0.3,0.3-0.6,0.6-0.8,1
			c-0.2,0.4-0.3,0.9-0.3,1.5c0,0.6,0.1,1.1,0.3,1.5c0.2,0.4,0.5,0.7,0.9,0.9c0.4,0.2,0.8,0.4,1.3,0.5c0.5,0.1,1,0.1,1.5,0.1
			c1.3,0,2.3-0.2,3-0.6s1.2-0.9,1.5-1.5c0.3-0.6,0.5-1.2,0.6-1.8s0.1-1.1,0.1-1.5V20.9z"/>
		<path class="st1" d="M275.6,13.2c-1,0-1.9,0.2-2.6,0.7c-0.7,0.5-1.3,1.1-1.7,1.8c-0.4,0.7-0.8,1.6-0.9,2.5
			c-0.2,0.9-0.3,1.8-0.3,2.7c0,0.8,0.1,1.7,0.3,2.6c0.2,0.9,0.5,1.7,0.9,2.4c0.4,0.7,1,1.3,1.7,1.7c0.7,0.5,1.5,0.7,2.5,0.7
			c1.5,0,2.7-0.4,3.6-1.3c0.8-0.9,1.4-2,1.6-3.5h6.2c-0.4,3.1-1.6,5.5-3.6,7.1c-2,1.6-4.6,2.5-7.7,2.5c-1.8,0-3.4-0.3-4.8-0.9
			c-1.5-0.6-2.7-1.4-3.7-2.5c-1-1.1-1.8-2.3-2.4-3.8s-0.9-3.1-0.9-4.8c0-1.8,0.3-3.5,0.8-5.1c0.5-1.6,1.3-2.9,2.3-4s2.3-2,3.8-2.7
			s3.2-1,5.1-1c1.4,0,2.7,0.2,4,0.5s2.4,0.9,3.5,1.7c1,0.7,1.8,1.7,2.5,2.8c0.6,1.1,1,2.4,1.1,3.9h-6.3
			C279.9,14.5,278.3,13.2,275.6,13.2z"/>
		<path class="st1" d="M310.8,0l13.5,21.8h0.1V0h6.7v32.4H324l-13.5-21.7h-0.1v21.7h-6.7V0H310.8z"/>
		<path class="st1" d="M343.6,26.8c1,0.9,2.4,1.4,4.2,1.4c1.3,0,2.4-0.3,3.4-1c0.9-0.7,1.5-1.3,1.7-2.1h5.7c-0.9,2.8-2.3,4.8-4.2,6
			c-1.9,1.2-4.1,1.8-6.8,1.8c-1.8,0-3.5-0.3-5-0.9c-1.5-0.6-2.7-1.4-3.8-2.5c-1-1.1-1.8-2.4-2.4-3.9c-0.6-1.5-0.8-3.2-0.8-5
			c0-1.8,0.3-3.4,0.9-4.9c0.6-1.5,1.4-2.8,2.5-3.9c1.1-1.1,2.3-2,3.8-2.6s3.1-1,4.9-1c2,0,3.7,0.4,5.2,1.2c1.5,0.8,2.7,1.8,3.7,3.1
			c1,1.3,1.6,2.8,2.1,4.5c0.4,1.7,0.6,3.4,0.5,5.2H342C342.1,24.3,342.6,25.9,343.6,26.8z M350.9,14.4c-0.8-0.8-1.9-1.3-3.5-1.3
			c-1,0-1.9,0.2-2.6,0.5c-0.7,0.3-1.2,0.8-1.6,1.3c-0.4,0.5-0.7,1.1-0.9,1.6c-0.2,0.6-0.3,1.1-0.3,1.5h10.5
			C352.2,16.5,351.7,15.3,350.9,14.4z"/>
		<path class="st1" d="M383,32.4l-4.2-15.8h-0.1l-4,15.8H368l-7.4-23.5h6.8l4.3,15.9h0.1l3.9-15.9h6.3l4,15.9h0.1l4.3-15.9h6.6
			l-7.4,23.5H383z"/>
		<path class="st1" d="M412.6,8.9v4.3h-4.7v11.6c0,1.1,0.2,1.8,0.5,2.2s1.1,0.5,2.2,0.5c0.4,0,0.7,0,1,0c0.3,0,0.7-0.1,1-0.1v5
			c-0.5,0.1-1.2,0.2-1.8,0.2s-1.3,0-2,0c-1,0-1.9-0.1-2.8-0.2c-0.9-0.1-1.7-0.4-2.4-0.8c-0.7-0.4-1.2-1-1.6-1.7
			c-0.4-0.7-0.6-1.7-0.6-2.9V13.3h-3.9V8.9h3.9v-7h6.4v7H412.6z"/>
		<path class="st1" d="M415.9,15.6c0.6-1.5,1.4-2.8,2.5-3.9c1.1-1.1,2.3-1.9,3.8-2.5c1.5-0.6,3.1-0.9,5-0.9c1.8,0,3.5,0.3,5,0.9
			c1.5,0.6,2.8,1.4,3.8,2.5c1.1,1.1,1.9,2.4,2.5,3.9c0.6,1.5,0.9,3.2,0.9,5.1c0,1.9-0.3,3.6-0.9,5.1c-0.6,1.5-1.4,2.8-2.5,3.9
			c-1.1,1.1-2.3,1.9-3.8,2.5c-1.5,0.6-3.2,0.9-5,0.9c-1.8,0-3.5-0.3-5-0.9c-1.5-0.6-2.8-1.4-3.8-2.5c-1.1-1.1-1.9-2.4-2.5-3.9
			c-0.6-1.5-0.9-3.2-0.9-5.1C415,18.8,415.3,17.1,415.9,15.6z M421.7,23.5c0.2,0.9,0.5,1.7,0.9,2.4c0.4,0.7,1,1.3,1.7,1.7
			s1.6,0.6,2.7,0.6s2-0.2,2.7-0.6s1.3-1,1.8-1.7c0.4-0.7,0.8-1.5,0.9-2.4c0.2-0.9,0.3-1.8,0.3-2.7c0-0.9-0.1-1.9-0.3-2.8
			s-0.5-1.7-0.9-2.4c-0.4-0.7-1-1.3-1.8-1.7c-0.7-0.4-1.7-0.7-2.7-0.7s-2,0.2-2.7,0.7c-0.7,0.4-1.3,1-1.7,1.7
			c-0.4,0.7-0.8,1.5-0.9,2.4s-0.3,1.8-0.3,2.8C421.4,21.6,421.5,22.6,421.7,23.5z"/>
		<path class="st1" d="M449.6,8.9v3.3h0.1c0.8-1.4,1.9-2.4,3.2-3c1.3-0.6,2.6-0.9,4-0.9c1.7,0,3.1,0.2,4.2,0.7c1.1,0.5,2,1.1,2.6,2
			c0.6,0.8,1.1,1.8,1.3,3c0.3,1.2,0.4,2.5,0.4,4v14.4h-6.4V19.2c0-1.9-0.3-3.4-0.9-4.3c-0.6-1-1.7-1.4-3.2-1.4c-1.8,0-3,0.5-3.8,1.6
			c-0.8,1-1.2,2.8-1.2,5.2v12.3h-6.4V8.9H449.6z"/>
		<path class="st1" d="M490.8,0v32.4h-7.1V0H490.8z"/>
		<path class="st1" d="M502.6,8.9v3.3h0.1c0.8-1.4,1.9-2.4,3.2-3c1.3-0.6,2.6-0.9,4-0.9c1.7,0,3.1,0.2,4.2,0.7c1.1,0.5,2,1.1,2.6,2
			c0.6,0.8,1.1,1.8,1.3,3c0.3,1.2,0.4,2.5,0.4,4v14.4H512V19.2c0-1.9-0.3-3.4-0.9-4.3c-0.6-1-1.7-1.4-3.2-1.4c-1.8,0-3,0.5-3.8,1.6
			c-0.8,1-1.2,2.8-1.2,5.2v12.3h-6.4V8.9H502.6z"/>
		<path class="st1" d="M528.8,26.6c0.3,0.5,0.7,0.9,1.1,1.2c0.5,0.3,1,0.6,1.6,0.7c0.6,0.2,1.2,0.2,1.8,0.2c0.5,0,0.9-0.1,1.4-0.2
			c0.5-0.1,1-0.3,1.4-0.5c0.4-0.2,0.7-0.5,1-0.9c0.3-0.4,0.4-0.9,0.4-1.4c0-1-0.6-1.7-1.9-2.2c-1.3-0.5-3.1-1-5.4-1.5
			c-0.9-0.2-1.9-0.5-2.7-0.7c-0.9-0.3-1.7-0.7-2.4-1.1c-0.7-0.5-1.3-1.1-1.7-1.8c-0.4-0.7-0.6-1.6-0.6-2.6c0-1.5,0.3-2.8,0.9-3.7
			c0.6-1,1.4-1.7,2.3-2.3c1-0.6,2.1-1,3.3-1.2c1.2-0.2,2.5-0.3,3.7-0.3s2.5,0.1,3.7,0.4s2.3,0.7,3.2,1.2c0.9,0.6,1.7,1.3,2.3,2.3
			c0.6,1,1,2.2,1.1,3.6h-6.1c-0.1-1.2-0.6-2.1-1.4-2.5c-0.8-0.4-1.8-0.7-3-0.7c-0.4,0-0.8,0-1.2,0.1c-0.4,0-0.8,0.1-1.2,0.3
			c-0.3,0.2-0.6,0.4-0.9,0.7c-0.2,0.3-0.4,0.7-0.4,1.2c0,0.6,0.2,1,0.6,1.4c0.4,0.4,1,0.7,1.7,0.9c0.7,0.2,1.5,0.4,2.3,0.6
			c0.9,0.2,1.8,0.4,2.7,0.6c0.9,0.2,1.9,0.5,2.7,0.8c0.9,0.3,1.7,0.7,2.4,1.2c0.7,0.5,1.3,1.1,1.7,1.9c0.4,0.7,0.6,1.7,0.6,2.7
			c0,1.5-0.3,2.8-0.9,3.9c-0.6,1-1.4,1.9-2.4,2.5s-2.1,1.1-3.4,1.3c-1.3,0.3-2.6,0.4-3.9,0.4c-1.4,0-2.7-0.1-4-0.4s-2.5-0.7-3.5-1.4
			c-1-0.6-1.8-1.5-2.5-2.5c-0.7-1-1-2.4-1.1-3.9h6.1C528.4,25.5,528.5,26.1,528.8,26.6z"/>
		<path class="st1" d="M560.6,8.9v4.3h-4.7v11.6c0,1.1,0.2,1.8,0.5,2.2s1.1,0.5,2.2,0.5c0.4,0,0.7,0,1,0c0.3,0,0.7-0.1,1-0.1v5
			c-0.5,0.1-1.2,0.2-1.8,0.2s-1.3,0-2,0c-1,0-1.9-0.1-2.8-0.2c-0.9-0.1-1.7-0.4-2.4-0.8c-0.7-0.4-1.2-1-1.6-1.7
			c-0.4-0.7-0.6-1.7-0.6-2.9V13.3h-3.9V8.9h3.9v-7h6.4v7H560.6z"/>
		<path class="st1" d="M563.9,5.3V0h6.4v5.3H563.9z M570.4,8.9v23.5h-6.4V8.9H570.4z"/>
		<path class="st1" d="M588.4,8.9v4.3h-4.7v11.6c0,1.1,0.2,1.8,0.5,2.2s1.1,0.5,2.2,0.5c0.4,0,0.7,0,1,0c0.3,0,0.7-0.1,1-0.1v5
			c-0.5,0.1-1.2,0.2-1.8,0.2s-1.3,0-2,0c-1,0-1.9-0.1-2.8-0.2c-0.9-0.1-1.7-0.4-2.4-0.8c-0.7-0.4-1.2-1-1.6-1.7
			c-0.4-0.7-0.6-1.7-0.6-2.9V13.3h-3.9V8.9h3.9v-7h6.4v7H588.4z"/>
		<path class="st1" d="M607.3,32.4v-3.3h-0.1c-0.8,1.4-1.9,2.3-3.2,3c-1.3,0.6-2.6,0.9-4,0.9c-1.7,0-3.1-0.2-4.2-0.7
			c-1.1-0.5-2-1.1-2.6-1.9c-0.6-0.8-1.1-1.8-1.3-3c-0.3-1.2-0.4-2.5-0.4-4V8.9h6.4v13.3c0,1.9,0.3,3.4,0.9,4.3
			c0.6,1,1.7,1.4,3.2,1.4c1.8,0,3-0.5,3.8-1.6c0.8-1,1.2-2.8,1.2-5.2V8.9h6.4v23.5H607.3z"/>
		<path class="st1" d="M631.3,8.9v4.3h-4.7v11.6c0,1.1,0.2,1.8,0.5,2.2s1.1,0.5,2.2,0.5c0.4,0,0.7,0,1,0c0.3,0,0.7-0.1,1-0.1v5
			c-0.5,0.1-1.2,0.2-1.8,0.2s-1.3,0-2,0c-1,0-1.9-0.1-2.8-0.2c-0.9-0.1-1.7-0.4-2.4-0.8c-0.7-0.4-1.2-1-1.6-1.7
			c-0.4-0.7-0.6-1.7-0.6-2.9V13.3h-3.9V8.9h3.9v-7h6.4v7H631.3z"/>
		<path class="st1" d="M641.3,26.8c1,0.9,2.4,1.4,4.2,1.4c1.3,0,2.4-0.3,3.4-1c0.9-0.7,1.5-1.3,1.7-2.1h5.7c-0.9,2.8-2.3,4.8-4.2,6
			c-1.9,1.2-4.1,1.8-6.8,1.8c-1.8,0-3.5-0.3-5-0.9c-1.5-0.6-2.7-1.4-3.8-2.5c-1-1.1-1.8-2.4-2.4-3.9c-0.6-1.5-0.8-3.2-0.8-5
			c0-1.8,0.3-3.4,0.9-4.9c0.6-1.5,1.4-2.8,2.5-3.9c1.1-1.1,2.3-2,3.8-2.6s3.1-1,4.9-1c2,0,3.7,0.4,5.2,1.2c1.5,0.8,2.7,1.8,3.7,3.1
			c1,1.3,1.6,2.8,2.1,4.5c0.4,1.7,0.6,3.4,0.5,5.2h-16.9C639.8,24.3,640.3,25.9,641.3,26.8z M648.5,14.4c-0.8-0.8-1.9-1.3-3.5-1.3
			c-1,0-1.9,0.2-2.6,0.5c-0.7,0.3-1.2,0.8-1.6,1.3c-0.4,0.5-0.7,1.1-0.9,1.6c-0.2,0.6-0.3,1.1-0.3,1.5h10.5
			C649.9,16.5,649.3,15.3,648.5,14.4z"/>
		<path class="st1" d="M179.1,54.5v21h-2.9v-21h-4v-2.4h4V50c0-1,0.1-1.9,0.2-2.8s0.4-1.6,0.9-2.2c0.4-0.6,1-1.1,1.7-1.4
			c0.7-0.3,1.7-0.5,2.8-0.5c0.4,0,0.8,0,1.2,0c0.4,0,0.8,0.1,1.2,0.1v2.5c-0.4-0.1-0.8-0.1-1.1-0.2c-0.3,0-0.7-0.1-1-0.1
			c-0.8,0-1.4,0.1-1.8,0.4s-0.7,0.6-0.9,1c-0.2,0.4-0.3,0.9-0.3,1.4s0,1.1,0,1.8v2h4.6v2.4H179.1z"/>
		<path class="st1" d="M201.1,52.5c1.4,0.7,2.5,1.6,3.5,2.7c0.9,1.1,1.6,2.4,2.1,3.9c0.5,1.5,0.7,3.1,0.7,4.8c0,1.7-0.2,3.3-0.7,4.8
			c-0.5,1.5-1.2,2.8-2.1,3.9c-0.9,1.1-2.1,2-3.5,2.7c-1.4,0.7-3,1-4.7,1c-1.8,0-3.4-0.3-4.7-1c-1.4-0.7-2.5-1.5-3.5-2.7
			s-1.7-2.4-2.1-3.9c-0.5-1.5-0.7-3.1-0.7-4.8c0-1.7,0.2-3.3,0.7-4.8c0.5-1.5,1.2-2.8,2.1-3.9s2.1-2,3.5-2.7c1.4-0.7,3-1,4.7-1
			C198.1,51.5,199.7,51.8,201.1,52.5z M192.8,54.7c-1,0.6-1.9,1.3-2.6,2.3c-0.7,0.9-1.2,2-1.5,3.2c-0.3,1.2-0.5,2.4-0.5,3.7
			c0,1.2,0.2,2.5,0.5,3.7c0.3,1.2,0.9,2.3,1.5,3.2c0.7,0.9,1.5,1.7,2.6,2.3s2.2,0.9,3.6,0.9s2.6-0.3,3.6-0.9s1.9-1.3,2.6-2.3
			c0.7-0.9,1.2-2,1.5-3.2c0.3-1.2,0.5-2.4,0.5-3.7c0-1.2-0.2-2.5-0.5-3.7c-0.3-1.2-0.9-2.3-1.5-3.2c-0.7-0.9-1.5-1.7-2.6-2.3
			c-1-0.6-2.2-0.9-3.6-0.9S193.8,54.2,192.8,54.7z"/>
		<path class="st1" d="M214.3,52.1v5.5h0.1c0.7-1.9,1.9-3.4,3.4-4.4c1.5-1,3.4-1.5,5.5-1.4v2.9c-1.3-0.1-2.5,0.1-3.5,0.5
			c-1.1,0.4-2,1-2.7,1.7c-0.8,0.8-1.4,1.7-1.8,2.7c-0.4,1-0.6,2.2-0.6,3.4v12.5h-2.9V52.1H214.3z"/>
		<path class="st1" d="M243.6,43.1l10.8,28.4l11.2-28.4h4.5v32.4H267v-28h-0.1l-11.1,28h-2.9l-10.7-28h-0.1v28h-3.1V43.1H243.6z"/>
		<path class="st1" d="M276.5,55.8c0.5-1,1.1-1.8,2-2.5c0.8-0.6,1.8-1.1,2.9-1.4c1.1-0.3,2.4-0.5,3.7-0.5c1,0,2.1,0.1,3.1,0.3
			c1,0.2,2,0.6,2.8,1.1c0.8,0.5,1.5,1.3,2,2.3c0.5,1,0.8,2.3,0.8,3.8v12.4c0,1.2,0.6,1.7,1.7,1.7c0.3,0,0.6-0.1,0.9-0.2v2.4
			c-0.3,0.1-0.6,0.1-0.9,0.1c-0.3,0-0.6,0-1,0c-0.7,0-1.3-0.1-1.7-0.3s-0.8-0.5-1-0.8c-0.2-0.4-0.4-0.8-0.5-1.3
			c-0.1-0.5-0.1-1.1-0.1-1.7h-0.1c-0.5,0.8-1,1.4-1.6,2c-0.5,0.6-1.1,1.1-1.8,1.5c-0.7,0.4-1.4,0.7-2.2,0.9c-0.8,0.2-1.8,0.3-3,0.3
			c-1.1,0-2.1-0.1-3.1-0.4c-1-0.3-1.8-0.7-2.5-1.2c-0.7-0.6-1.3-1.3-1.7-2.1c-0.4-0.9-0.6-1.9-0.6-3.1c0-1.6,0.4-2.9,1.1-3.8
			c0.7-0.9,1.7-1.6,2.9-2.1c1.2-0.5,2.5-0.8,4-1c1.5-0.2,3-0.4,4.6-0.6c0.6-0.1,1.1-0.1,1.6-0.2c0.5-0.1,0.8-0.2,1.1-0.5
			s0.5-0.5,0.7-0.9c0.2-0.4,0.2-0.9,0.2-1.5c0-1-0.2-1.8-0.5-2.4c-0.3-0.6-0.8-1.1-1.3-1.5c-0.6-0.4-1.2-0.6-2-0.7
			c-0.7-0.1-1.5-0.2-2.4-0.2c-1.8,0-3.3,0.4-4.5,1.3c-1.2,0.9-1.8,2.2-1.8,4.2h-2.9C275.7,58,276,56.8,276.5,55.8z M290.8,62.8
			c-0.2,0.3-0.5,0.6-1,0.7c-0.5,0.2-1,0.3-1.4,0.3c-1.2,0.2-2.5,0.4-3.7,0.6c-1.3,0.2-2.5,0.4-3.5,0.7c-1.1,0.3-1.9,0.8-2.6,1.4
			c-0.7,0.6-1,1.5-1,2.7c0,0.7,0.1,1.4,0.4,1.9c0.3,0.6,0.7,1,1.2,1.5c0.5,0.4,1,0.7,1.7,0.9c0.6,0.2,1.3,0.3,2,0.3
			c1.1,0,2.1-0.2,3.1-0.5c1-0.3,1.9-0.8,2.6-1.5c0.7-0.6,1.3-1.4,1.8-2.3c0.4-0.9,0.7-1.9,0.7-3.1L290.8,62.8L290.8,62.8z"/>
		<path class="st1" d="M308.8,52.1v2.4H304v15.8c0,0.9,0.1,1.7,0.4,2.2c0.3,0.5,0.9,0.8,1.9,0.9c0.8,0,1.6,0,2.5-0.1v2.4
			c-0.4,0-0.8,0-1.3,0s-0.8,0-1.3,0c-1.9,0-3.2-0.4-4-1.1c-0.8-0.7-1.1-2.1-1.1-4.1v-16h-4.1v-2.4h4.1v-7h2.9v7H308.8z"/>
		<path class="st1" d="M315.8,43.1v13h0.1c0.5-1.4,1.5-2.6,2.9-3.4c1.4-0.9,2.9-1.3,4.6-1.3c1.6,0,3,0.2,4.1,0.6s2,1,2.7,1.8
			c0.7,0.8,1.1,1.7,1.4,2.8s0.4,2.4,0.4,3.8v15.1h-2.9V61c0-1-0.1-1.9-0.3-2.8c-0.2-0.9-0.5-1.6-1-2.2c-0.5-0.6-1.1-1.1-1.8-1.5
			c-0.8-0.4-1.7-0.5-2.9-0.5c-1.2,0-2.2,0.2-3.1,0.6c-0.9,0.4-1.7,1-2.3,1.7c-0.6,0.7-1.1,1.6-1.5,2.5c-0.3,1-0.5,2.1-0.6,3.2v13.7
			h-2.9V43.1H315.8z"/>
		<path class="st1" d="M339.4,67.8c0.3,1.1,0.7,2.1,1.4,3c0.6,0.9,1.4,1.6,2.4,2.2s2.1,0.9,3.5,0.9c2.1,0,3.7-0.5,4.9-1.6
			c1.2-1.1,2-2.5,2.5-4.4h2.9c-0.6,2.7-1.7,4.7-3.3,6.2s-3.9,2.2-6.9,2.2c-1.8,0-3.4-0.3-4.8-1c-1.3-0.7-2.4-1.5-3.3-2.7
			c-0.8-1.1-1.5-2.5-1.9-4c-0.4-1.5-0.6-3.1-0.6-4.7c0-1.5,0.2-3.1,0.6-4.5c0.4-1.5,1-2.8,1.9-4c0.8-1.2,1.9-2.1,3.3-2.8
			c1.3-0.7,2.9-1.1,4.8-1.1c1.9,0,3.5,0.4,4.8,1.1c1.3,0.8,2.4,1.7,3.2,3c0.8,1.2,1.4,2.6,1.8,4.2c0.4,1.6,0.5,3.2,0.5,4.8h-18
			C339,65.7,339.2,66.7,339.4,67.8z M353.6,59.1c-0.3-1-0.8-1.9-1.5-2.7c-0.6-0.8-1.4-1.4-2.3-1.9c-0.9-0.5-1.9-0.7-3.1-0.7
			c-1.2,0-2.2,0.2-3.1,0.7c-0.9,0.5-1.7,1.1-2.3,1.9c-0.6,0.8-1.1,1.7-1.5,2.7c-0.4,1-0.6,2.1-0.8,3.1h15.2
			C354.2,61.1,354,60.1,353.6,59.1z"/>
		<path class="st1" d="M363.5,52.1v4h0.1c0.8-1.5,1.7-2.6,3-3.4c1.2-0.8,2.8-1.2,4.7-1.2c1.5,0,2.9,0.4,4.2,1.1
			c1.3,0.8,2.1,1.9,2.5,3.5c0.7-1.5,1.7-2.7,3.1-3.5c1.4-0.8,2.8-1.1,4.4-1.1c5.2,0,7.8,2.7,7.8,8.2v15.9h-2.9V59.8
			c0-1.9-0.4-3.4-1.2-4.4c-0.8-1-2.3-1.5-4.3-1.5c-1.2,0-2.3,0.2-3.1,0.7c-0.8,0.5-1.5,1.1-2,1.9c-0.5,0.8-0.8,1.7-1,2.7
			c-0.2,1-0.3,2.1-0.3,3.2v13.3h-2.9V59.7c0-0.8-0.1-1.5-0.2-2.2c-0.2-0.7-0.4-1.3-0.8-1.9s-0.9-0.9-1.5-1.2s-1.4-0.5-2.3-0.5
			c-1.2,0-2.3,0.2-3.2,0.7c-0.9,0.4-1.6,1-2.2,1.8c-0.6,0.8-1,1.7-1.2,2.7c-0.3,1-0.4,2.2-0.4,3.4v13.1h-2.9V52.1H363.5z"/>
		<path class="st1" d="M399.3,55.8c0.5-1,1.1-1.8,2-2.5c0.8-0.6,1.8-1.1,2.9-1.4c1.1-0.3,2.4-0.5,3.7-0.5c1,0,2.1,0.1,3.1,0.3
			c1,0.2,2,0.6,2.8,1.1c0.8,0.5,1.5,1.3,2,2.3c0.5,1,0.8,2.3,0.8,3.8v12.4c0,1.2,0.6,1.7,1.7,1.7c0.3,0,0.6-0.1,0.9-0.2v2.4
			c-0.3,0.1-0.6,0.1-0.9,0.1c-0.3,0-0.6,0-1,0c-0.7,0-1.3-0.1-1.7-0.3s-0.8-0.5-1-0.8c-0.2-0.4-0.4-0.8-0.5-1.3
			c-0.1-0.5-0.1-1.1-0.1-1.7h-0.1c-0.5,0.8-1,1.4-1.6,2c-0.5,0.6-1.1,1.1-1.8,1.5c-0.7,0.4-1.4,0.7-2.2,0.9c-0.8,0.2-1.8,0.3-3,0.3
			c-1.1,0-2.1-0.1-3.1-0.4c-1-0.3-1.8-0.7-2.5-1.2c-0.7-0.6-1.3-1.3-1.7-2.1c-0.4-0.9-0.6-1.9-0.6-3.1c0-1.6,0.4-2.9,1.1-3.8
			c0.7-0.9,1.7-1.6,2.9-2.1c1.2-0.5,2.5-0.8,4-1c1.5-0.2,3-0.4,4.6-0.6c0.6-0.1,1.1-0.1,1.6-0.2c0.5-0.1,0.8-0.2,1.1-0.5
			s0.5-0.5,0.7-0.9c0.2-0.4,0.2-0.9,0.2-1.5c0-1-0.2-1.8-0.5-2.4c-0.3-0.6-0.8-1.1-1.3-1.5c-0.6-0.4-1.2-0.6-2-0.7
			c-0.7-0.1-1.5-0.2-2.4-0.2c-1.8,0-3.3,0.4-4.5,1.3c-1.2,0.9-1.8,2.2-1.8,4.2h-2.9C398.6,58,398.8,56.8,399.3,55.8z M413.6,62.8
			c-0.2,0.3-0.5,0.6-1,0.7c-0.5,0.2-1,0.3-1.4,0.3c-1.2,0.2-2.5,0.4-3.7,0.6c-1.3,0.2-2.5,0.4-3.5,0.7c-1.1,0.3-1.9,0.8-2.6,1.4
			c-0.7,0.6-1,1.5-1,2.7c0,0.7,0.1,1.4,0.4,1.9c0.3,0.6,0.7,1,1.2,1.5c0.5,0.4,1,0.7,1.7,0.9c0.6,0.2,1.3,0.3,2,0.3
			c1.1,0,2.1-0.2,3.1-0.5c1-0.3,1.9-0.8,2.6-1.5c0.7-0.6,1.3-1.4,1.8-2.3c0.4-0.9,0.7-1.9,0.7-3.1L413.6,62.8L413.6,62.8z"/>
		<path class="st1" d="M431.6,52.1v2.4h-4.8v15.8c0,0.9,0.1,1.7,0.4,2.2c0.3,0.5,0.9,0.8,1.9,0.9c0.8,0,1.6,0,2.5-0.1v2.4
			c-0.4,0-0.8,0-1.3,0s-0.8,0-1.3,0c-1.9,0-3.2-0.4-4-1.1c-0.8-0.7-1.1-2.1-1.1-4.1v-16h-4.1v-2.4h4.1v-7h2.9v7H431.6z"/>
		<path class="st1" d="M438.7,43.1v4.6h-2.9v-4.6H438.7z M438.7,52.1v23.4h-2.9V52.1H438.7z"/>
		<path class="st1" d="M458.5,55.4c-1.1-1-2.5-1.5-4.5-1.5c-1.4,0-2.6,0.3-3.6,0.9c-1,0.6-1.9,1.3-2.6,2.3c-0.7,0.9-1.2,2-1.5,3.2
			c-0.3,1.2-0.5,2.4-0.5,3.7c0,1.2,0.2,2.5,0.5,3.7c0.3,1.2,0.9,2.3,1.5,3.2c0.7,0.9,1.5,1.7,2.6,2.3s2.2,0.9,3.6,0.9
			c0.9,0,1.7-0.2,2.5-0.5c0.8-0.3,1.5-0.8,2.1-1.4c0.6-0.6,1.1-1.3,1.5-2.1s0.6-1.7,0.7-2.7h2.9c-0.4,2.8-1.4,5.1-3.1,6.7
			c-1.7,1.6-3.9,2.4-6.5,2.4c-1.8,0-3.4-0.3-4.7-1c-1.4-0.7-2.5-1.5-3.5-2.7s-1.7-2.4-2.1-3.9c-0.5-1.5-0.7-3.1-0.7-4.8
			c0-1.7,0.2-3.3,0.7-4.8c0.5-1.5,1.2-2.8,2.1-3.9s2.1-2,3.5-2.7c1.4-0.7,3-1,4.7-1c2.5,0,4.6,0.7,6.4,2c1.7,1.3,2.8,3.3,3.1,6h-2.9
			C460.3,57.7,459.6,56.4,458.5,55.4z"/>
		<path class="st1" d="M468.3,55.8c0.5-1,1.1-1.8,2-2.5c0.8-0.6,1.8-1.1,2.9-1.4c1.1-0.3,2.4-0.5,3.7-0.5c1,0,2.1,0.1,3.1,0.3
			c1,0.2,2,0.6,2.8,1.1c0.8,0.5,1.5,1.3,2,2.3c0.5,1,0.8,2.3,0.8,3.8v12.4c0,1.2,0.6,1.7,1.7,1.7c0.3,0,0.6-0.1,0.9-0.2v2.4
			c-0.3,0.1-0.6,0.1-0.9,0.1c-0.3,0-0.6,0-1,0c-0.7,0-1.3-0.1-1.7-0.3s-0.8-0.5-1-0.8c-0.2-0.4-0.4-0.8-0.5-1.3
			c-0.1-0.5-0.1-1.1-0.1-1.7h-0.1c-0.5,0.8-1,1.4-1.6,2c-0.5,0.6-1.1,1.1-1.8,1.5c-0.7,0.4-1.4,0.7-2.2,0.9c-0.8,0.2-1.8,0.3-3,0.3
			c-1.1,0-2.1-0.1-3.1-0.4c-1-0.3-1.8-0.7-2.5-1.2c-0.7-0.6-1.3-1.3-1.7-2.1c-0.4-0.9-0.6-1.9-0.6-3.1c0-1.6,0.4-2.9,1.1-3.8
			c0.7-0.9,1.7-1.6,2.9-2.1c1.2-0.5,2.5-0.8,4-1c1.5-0.2,3-0.4,4.6-0.6c0.6-0.1,1.1-0.1,1.6-0.2c0.5-0.1,0.8-0.2,1.1-0.5
			s0.5-0.5,0.7-0.9c0.2-0.4,0.2-0.9,0.2-1.5c0-1-0.2-1.8-0.5-2.4c-0.3-0.6-0.8-1.1-1.3-1.5c-0.6-0.4-1.2-0.6-2-0.7
			c-0.7-0.1-1.5-0.2-2.4-0.2c-1.8,0-3.3,0.4-4.5,1.3c-1.2,0.9-1.8,2.2-1.8,4.2h-2.9C467.5,58,467.8,56.8,468.3,55.8z M482.6,62.8
			c-0.2,0.3-0.5,0.6-1,0.7c-0.5,0.2-1,0.3-1.4,0.3c-1.2,0.2-2.5,0.4-3.7,0.6c-1.3,0.2-2.5,0.4-3.5,0.7c-1.1,0.3-1.9,0.8-2.6,1.4
			c-0.7,0.6-1,1.5-1,2.7c0,0.7,0.1,1.4,0.4,1.9c0.3,0.6,0.7,1,1.2,1.5c0.5,0.4,1,0.7,1.7,0.9c0.6,0.2,1.3,0.3,2,0.3
			c1.1,0,2.1-0.2,3.1-0.5c1-0.3,1.9-0.8,2.6-1.5c0.7-0.6,1.3-1.4,1.8-2.3c0.4-0.9,0.7-1.9,0.7-3.1L482.6,62.8L482.6,62.8z"/>
		<path class="st1" d="M494.2,43.1v32.4h-2.9V43.1H494.2z"/>
		<path class="st1" d="M515.1,69.1c0.5,1.1,1.3,2,2.2,2.7c1,0.7,2.1,1.1,3.4,1.4c1.3,0.3,2.7,0.4,4.2,0.4c0.8,0,1.8-0.1,2.8-0.4
			c1-0.2,1.9-0.6,2.8-1.2c0.9-0.5,1.6-1.2,2.2-2c0.6-0.8,0.9-1.8,0.9-3c0-0.9-0.2-1.7-0.6-2.4c-0.4-0.7-0.9-1.2-1.6-1.7
			c-0.7-0.5-1.4-0.8-2.2-1.1c-0.8-0.3-1.6-0.5-2.3-0.7l-7.2-1.8c-0.9-0.2-1.9-0.5-2.7-0.9c-0.9-0.4-1.7-0.8-2.3-1.5
			c-0.7-0.6-1.2-1.3-1.6-2.2c-0.4-0.9-0.6-2-0.6-3.2c0-0.8,0.2-1.7,0.5-2.8c0.3-1.1,0.9-2.1,1.7-3c0.8-0.9,2-1.7,3.4-2.4
			c1.5-0.7,3.3-1,5.6-1c1.6,0,3.1,0.2,4.6,0.6c1.5,0.4,2.7,1.1,3.8,1.9c1.1,0.8,2,1.9,2.6,3.2c0.7,1.3,1,2.7,1,4.4h-3.1
			c-0.1-1.2-0.3-2.3-0.8-3.2c-0.5-0.9-1.2-1.7-2-2.3c-0.8-0.6-1.7-1.1-2.8-1.4s-2.1-0.5-3.3-0.5c-1.1,0-2.1,0.1-3.1,0.3
			c-1,0.2-1.8,0.6-2.6,1.1c-0.7,0.5-1.3,1.2-1.8,2s-0.7,1.8-0.7,3c0,0.8,0.1,1.4,0.4,2c0.3,0.6,0.6,1,1.1,1.4s1,0.7,1.6,1
			c0.6,0.2,1.2,0.4,1.9,0.6l7.9,2c1.2,0.3,2.2,0.7,3.2,1.1c1,0.4,1.9,1,2.7,1.6c0.8,0.7,1.4,1.4,1.8,2.4c0.4,0.9,0.7,2.1,0.7,3.4
			c0,0.4,0,0.8-0.1,1.5c-0.1,0.6-0.3,1.2-0.5,1.9c-0.3,0.7-0.7,1.4-1.2,2.1c-0.5,0.7-1.3,1.3-2.2,1.9c-0.9,0.6-2.1,1-3.4,1.4
			c-1.4,0.3-3,0.5-4.9,0.5c-1.9,0-3.7-0.2-5.3-0.7c-1.6-0.4-3-1.1-4.2-2c-1.2-0.9-2-2.1-2.7-3.5c-0.6-1.4-0.9-3.1-0.8-5.1h3.1
			C514.3,66.6,514.5,68,515.1,69.1z"/>
		<path class="st1" d="M555.3,55.4c-1.1-1-2.5-1.5-4.5-1.5c-1.4,0-2.6,0.3-3.6,0.9c-1,0.6-1.9,1.3-2.6,2.3c-0.7,0.9-1.2,2-1.5,3.2
			c-0.3,1.2-0.5,2.4-0.5,3.7c0,1.2,0.2,2.5,0.5,3.7c0.3,1.2,0.9,2.3,1.5,3.2c0.7,0.9,1.5,1.7,2.6,2.3s2.2,0.9,3.6,0.9
			c0.9,0,1.7-0.2,2.5-0.5c0.8-0.3,1.5-0.8,2.1-1.4c0.6-0.6,1.1-1.3,1.5-2.1s0.6-1.7,0.7-2.7h2.9c-0.4,2.8-1.4,5.1-3.1,6.7
			c-1.7,1.6-3.9,2.4-6.5,2.4c-1.8,0-3.4-0.3-4.7-1c-1.4-0.7-2.5-1.5-3.5-2.7s-1.7-2.4-2.1-3.9c-0.5-1.5-0.7-3.1-0.7-4.8
			c0-1.7,0.2-3.3,0.7-4.8c0.5-1.5,1.2-2.8,2.1-3.9s2.1-2,3.5-2.7c1.4-0.7,3-1,4.7-1c2.5,0,4.6,0.7,6.4,2c1.7,1.3,2.8,3.3,3.1,6h-2.9
			C557.1,57.7,556.3,56.4,555.3,55.4z"/>
		<path class="st1" d="M567.4,43.1v4.6h-2.9v-4.6H567.4z M567.4,52.1v23.4h-2.9V52.1H567.4z"/>
		<path class="st1" d="M575,67.8c0.3,1.1,0.7,2.1,1.4,3c0.6,0.9,1.4,1.6,2.4,2.2s2.1,0.9,3.5,0.9c2.1,0,3.7-0.5,4.9-1.6
			c1.2-1.1,2-2.5,2.5-4.4h2.9c-0.6,2.7-1.7,4.7-3.3,6.2s-3.9,2.2-6.9,2.2c-1.8,0-3.4-0.3-4.8-1c-1.3-0.7-2.4-1.5-3.3-2.7
			c-0.8-1.1-1.5-2.5-1.9-4c-0.4-1.5-0.6-3.1-0.6-4.7c0-1.5,0.2-3.1,0.6-4.5c0.4-1.5,1-2.8,1.9-4c0.8-1.2,1.9-2.1,3.3-2.8
			c1.3-0.7,2.9-1.1,4.8-1.1c1.9,0,3.5,0.4,4.8,1.1c1.3,0.8,2.4,1.7,3.2,3c0.8,1.2,1.4,2.6,1.8,4.2c0.4,1.6,0.5,3.2,0.5,4.8h-18
			C574.6,65.7,574.7,66.7,575,67.8z M589.2,59.1c-0.3-1-0.8-1.9-1.5-2.7c-0.6-0.8-1.4-1.4-2.3-1.9c-0.9-0.5-1.9-0.7-3.1-0.7
			c-1.2,0-2.2,0.2-3.1,0.7c-0.9,0.5-1.7,1.1-2.3,1.9c-0.6,0.8-1.1,1.7-1.5,2.7c-0.4,1-0.6,2.1-0.8,3.1h15.2
			C589.7,61.1,589.5,60.1,589.2,59.1z"/>
		<path class="st1" d="M599.3,52.1v4h0.1c0.5-1.4,1.5-2.6,2.9-3.4c1.4-0.9,2.9-1.3,4.6-1.3c1.6,0,3,0.2,4.1,0.6s2,1,2.7,1.8
			c0.7,0.8,1.1,1.7,1.4,2.8s0.4,2.4,0.4,3.8v15.1h-2.9V61c0-1-0.1-1.9-0.3-2.8c-0.2-0.9-0.5-1.6-1-2.2c-0.5-0.6-1.1-1.1-1.8-1.5
			c-0.8-0.4-1.7-0.5-2.9-0.5c-1.2,0-2.2,0.2-3.1,0.6c-0.9,0.4-1.7,1-2.3,1.7c-0.6,0.7-1.1,1.6-1.5,2.5c-0.3,1-0.5,2.1-0.6,3.2v13.7
			h-2.9V52.1H599.3z"/>
		<path class="st1" d="M635.2,55.4c-1.1-1-2.5-1.5-4.5-1.5c-1.4,0-2.6,0.3-3.6,0.9c-1,0.6-1.9,1.3-2.6,2.3c-0.7,0.9-1.2,2-1.5,3.2
			c-0.3,1.2-0.5,2.4-0.5,3.7c0,1.2,0.2,2.5,0.5,3.7c0.3,1.2,0.9,2.3,1.5,3.2c0.7,0.9,1.5,1.7,2.6,2.3s2.2,0.9,3.6,0.9
			c0.9,0,1.7-0.2,2.5-0.5c0.8-0.3,1.5-0.8,2.1-1.4c0.6-0.6,1.1-1.3,1.5-2.1s0.6-1.7,0.7-2.7h2.9c-0.4,2.8-1.4,5.1-3.1,6.7
			c-1.7,1.6-3.9,2.4-6.5,2.4c-1.8,0-3.4-0.3-4.7-1c-1.4-0.7-2.5-1.5-3.5-2.7s-1.7-2.4-2.1-3.9c-0.5-1.5-0.7-3.1-0.7-4.8
			c0-1.7,0.2-3.3,0.7-4.8c0.5-1.5,1.2-2.8,2.1-3.9s2.1-2,3.5-2.7c1.4-0.7,3-1,4.7-1c2.5,0,4.6,0.7,6.4,2c1.7,1.3,2.8,3.3,3.1,6h-2.9
			C637,57.7,636.3,56.4,635.2,55.4z"/>
		<path class="st1" d="M646.6,67.8c0.3,1.1,0.7,2.1,1.4,3c0.6,0.9,1.4,1.6,2.4,2.2s2.1,0.9,3.5,0.9c2.1,0,3.7-0.5,4.9-1.6
			c1.2-1.1,2-2.5,2.5-4.4h2.9c-0.6,2.7-1.7,4.7-3.3,6.2s-3.9,2.2-6.9,2.2c-1.8,0-3.4-0.3-4.8-1c-1.3-0.7-2.4-1.5-3.3-2.7
			c-0.8-1.1-1.5-2.5-1.9-4c-0.4-1.5-0.6-3.1-0.6-4.7c0-1.5,0.2-3.1,0.6-4.5c0.4-1.5,1-2.8,1.9-4c0.8-1.2,1.9-2.1,3.3-2.8
			c1.3-0.7,2.9-1.1,4.8-1.1c1.9,0,3.5,0.4,4.8,1.1c1.3,0.8,2.4,1.7,3.2,3c0.8,1.2,1.4,2.6,1.8,4.2c0.4,1.6,0.5,3.2,0.5,4.8h-18
			C646.1,65.7,646.3,66.7,646.6,67.8z M660.7,59.1c-0.3-1-0.8-1.9-1.5-2.7c-0.6-0.8-1.4-1.4-2.3-1.9c-0.9-0.5-1.9-0.7-3.1-0.7
			c-1.2,0-2.2,0.2-3.1,0.7c-0.9,0.5-1.7,1.1-2.3,1.9c-0.6,0.8-1.1,1.7-1.5,2.7c-0.4,1-0.6,2.1-0.8,3.1h15.2
			C661.3,61.1,661.1,60.1,660.7,59.1z"/>
		<path class="st1" d="M681.5,56.7c-0.3-0.7-0.8-1.2-1.3-1.6c-0.6-0.4-1.2-0.7-1.9-0.9c-0.7-0.2-1.5-0.3-2.3-0.3
			c-0.6,0-1.3,0.1-1.9,0.2c-0.7,0.1-1.2,0.4-1.8,0.7c-0.5,0.3-1,0.7-1.3,1.2c-0.3,0.5-0.5,1.2-0.5,1.9c0,0.6,0.2,1.2,0.5,1.6
			c0.3,0.4,0.7,0.8,1.2,1.1c0.5,0.3,1,0.6,1.6,0.8s1.1,0.4,1.6,0.5l3.8,0.9c0.8,0.1,1.6,0.3,2.4,0.7c0.8,0.3,1.5,0.7,2.1,1.2
			c0.6,0.5,1.1,1.2,1.5,1.9c0.4,0.8,0.6,1.7,0.6,2.7c0,1.3-0.3,2.4-0.9,3.2c-0.6,0.9-1.3,1.6-2.2,2.2c-0.9,0.6-1.9,1-3,1.2
			s-2.2,0.4-3.3,0.4c-2.8,0-5-0.7-6.7-2c-1.7-1.3-2.7-3.4-2.9-6.3h2.9c0.1,1.9,0.8,3.4,2.1,4.4c1.3,1,2.9,1.5,4.8,1.5
			c0.7,0,1.4-0.1,2.2-0.2c0.7-0.2,1.4-0.4,2.1-0.8s1.2-0.8,1.6-1.4c0.4-0.6,0.6-1.2,0.6-2.1c0-0.7-0.1-1.3-0.4-1.7s-0.7-0.9-1.2-1.2
			c-0.5-0.3-1-0.6-1.7-0.8c-0.6-0.2-1.2-0.4-1.9-0.5l-3.7-0.8c-0.9-0.2-1.8-0.5-2.6-0.8c-0.8-0.3-1.5-0.7-2.1-1.2
			c-0.6-0.5-1.1-1-1.4-1.7c-0.3-0.7-0.5-1.5-0.5-2.5c0-1.2,0.3-2.2,0.8-3c0.5-0.8,1.2-1.5,2.1-2c0.8-0.5,1.8-0.9,2.8-1.1
			c1-0.2,2.1-0.4,3.1-0.4c1.2,0,2.3,0.2,3.3,0.5c1,0.3,1.9,0.8,2.7,1.4c0.8,0.6,1.4,1.4,1.8,2.4c0.5,0.9,0.7,2,0.8,3.3H682
			C682,58.1,681.8,57.4,681.5,56.7z"/>
	</g>
</g>
</svg>
