<?xml version="1.0" encoding="UTF-8"?>
<!DOCTYPE svg PUBLIC "-//W3C//DTD SVG 1.1//EN" "http://www.w3.org/Graphics/SVG/1.1/DTD/svg11.dtd">
<svg xmlns="http://www.w3.org/2000/svg" version="1.1" width="601px" height="601px" style="shape-rendering:geometricPrecision; text-rendering:geometricPrecision; image-rendering:optimizeQuality; fill-rule:evenodd; clip-rule:evenodd" xmlns:xlink="http://www.w3.org/1999/xlink">
<g><path style="opacity:1" fill="#fefefe" d="M -0.5,-0.5 C 199.833,-0.5 400.167,-0.5 600.5,-0.5C 600.5,199.833 600.5,400.167 600.5,600.5C 400.167,600.5 199.833,600.5 -0.5,600.5C -0.5,400.167 -0.5,199.833 -0.5,-0.5 Z"/></g>
<g><path style="opacity:1" fill="#688f64" d="M 262.5,199.5 C 262.5,199.167 262.5,198.833 262.5,198.5C 288.5,198.5 314.5,198.5 340.5,198.5C 340.5,199.833 340.5,201.167 340.5,202.5C 340.167,202.5 339.833,202.5 339.5,202.5C 339.586,201.504 339.252,200.671 338.5,200C 313.169,199.5 287.836,199.333 262.5,199.5 Z"/></g>
<g><path style="opacity:1" fill="#698e65" d="M 380.5,198.5 C 394.01,198.171 407.344,198.504 420.5,199.5C 407.5,199.5 394.5,199.5 381.5,199.5C 381.737,200.791 381.404,201.791 380.5,202.5C 380.5,201.167 380.5,199.833 380.5,198.5 Z"/></g>
<g><path style="opacity:1" fill="#edfeea" d="M 420.5,399.5 C 420.5,332.833 420.5,266.167 420.5,199.5C 407.344,198.504 394.01,198.171 380.5,198.5C 392.775,198.091 405.108,197.091 417.5,195.5C 420.666,196.174 422.166,198.174 422,201.5C 422.167,234.5 422.333,267.5 422.5,300.5C 422.5,333.84 421.833,366.84 420.5,399.5 Z"/></g>
<g><path style="opacity:1" fill="#32882c" d="M 319.5,296.5 C 319.5,294.833 319.5,293.167 319.5,291.5C 317.115,290.708 315.115,289.374 313.5,287.5C 312.037,281.917 310.037,276.584 307.5,271.5C 306.5,271.5 305.5,271.5 304.5,271.5C 304.167,271.5 303.833,271.5 303.5,271.5C 303.5,270.833 303.5,270.167 303.5,269.5C 301.559,264.285 299.059,259.285 296,254.5C 295.667,252.833 295.333,251.167 295,249.5C 292.041,245.868 288.875,242.535 285.5,239.5C 285.611,238.883 285.944,238.383 286.5,238C 282.884,232.055 279.718,225.888 277,219.5C 275.67,218.418 274.17,217.751 272.5,217.5C 272.5,216.833 272.167,216.5 271.5,216.5C 271.5,215.833 271.5,215.167 271.5,214.5C 271.5,213.167 271.5,211.833 271.5,210.5C 271.327,207.821 270.327,205.487 268.5,203.5C 268.667,202.833 268.833,202.167 269,201.5C 290.961,201.357 313.127,201.523 335.5,202C 336,202.5 336.5,203 337,203.5C 337.833,243.504 337.667,283.504 336.5,323.5C 334.457,318.607 332.624,313.607 331,308.5C 327.375,306.584 325.875,303.584 326.5,299.5C 324.005,298.801 321.672,297.801 319.5,296.5 Z"/></g>
<g><path style="opacity:1" fill="#e8fee5" d="M 139.5,198.5 C 126.167,198.5 112.833,198.5 99.5,198.5C 99.5,265.5 99.5,332.5 99.5,399.5C 98.3346,332.001 98.1679,264.335 99,196.5C 100.868,195.328 102.702,195.495 104.5,197C 116.341,197.169 128.007,197.669 139.5,198.5 Z"/></g>
<g><path style="opacity:1" fill="#578852" d="M 139.5,198.5 C 139.5,198.833 139.5,199.167 139.5,199.5C 126.323,199.171 113.323,199.505 100.5,200.5C 100.17,266.904 100.504,333.238 101.5,399.5C 100.833,399.5 100.167,399.5 99.5,399.5C 99.5,332.5 99.5,265.5 99.5,198.5C 112.833,198.5 126.167,198.5 139.5,198.5 Z"/></g>
<g><path style="opacity:1" fill="#e8fee5" d="M 218.5,198.5 C 205.5,198.5 192.5,198.5 179.5,198.5C 179.5,265.167 179.5,331.833 179.5,398.5C 179.5,398.833 179.5,399.167 179.5,399.5C 178.335,332.335 178.168,265.001 179,197.5C 180.588,195.032 182.422,194.866 184.5,197C 196.007,197.169 207.341,197.669 218.5,198.5 Z"/></g>
<g><path style="opacity:1" fill="#487a43" d="M 218.5,198.5 C 219.167,198.5 219.833,198.5 220.5,198.5C 220.5,265.5 220.5,332.5 220.5,399.5C 219.833,399.5 219.167,399.5 218.5,399.5C 219.831,333.402 219.831,267.402 218.5,201.5C 206.011,200.505 193.344,200.171 180.5,200.5C 180.5,266.5 180.5,332.5 180.5,398.5C 180.167,398.5 179.833,398.5 179.5,398.5C 179.5,331.833 179.5,265.167 179.5,198.5C 192.5,198.5 205.5,198.5 218.5,198.5 Z"/></g>
<g><path style="opacity:1" fill="#358230" d="M 218.5,201.5 C 218.832,266.335 218.499,331.002 217.5,395.5C 217.5,393.5 217.5,391.5 217.5,389.5C 217.5,326.833 217.5,264.167 217.5,201.5C 216.5,201.5 215.5,201.5 214.5,201.5C 204.833,201.5 195.167,201.5 185.5,201.5C 184.167,201.5 182.833,201.5 181.5,201.5C 181.5,266.833 181.5,332.167 181.5,397.5C 185.068,397.241 186.401,395.241 185.5,391.5C 187.854,390.506 188.854,391.506 188.5,394.5C 194.789,393.628 201.122,393.295 207.5,393.5C 207.5,394.833 207.5,396.167 207.5,397.5C 210.287,396.525 212.954,396.859 215.5,398.5C 203.833,398.5 192.167,398.5 180.5,398.5C 180.5,332.5 180.5,266.5 180.5,200.5C 193.344,200.171 206.011,200.505 218.5,201.5 Z"/></g>
<g><path style="opacity:1" fill="#33872c" d="M 185.5,201.5 C 195.167,201.5 204.833,201.5 214.5,201.5C 214.82,263.614 214.486,325.781 213.5,388C 214.071,389.205 214.738,390.372 215.5,391.5C 216.182,390.757 216.849,390.091 217.5,389.5C 217.5,391.5 217.5,393.5 217.5,395.5C 217.573,397.027 216.906,398.027 215.5,398.5C 212.954,396.859 210.287,396.525 207.5,397.5C 207.5,396.167 207.5,394.833 207.5,393.5C 201.122,393.295 194.789,393.628 188.5,394.5C 188.854,391.506 187.854,390.506 185.5,391.5C 185.529,330.5 185.529,269.5 185.5,208.5C 185.39,206.626 186.056,205.126 187.5,204C 186.619,203.292 185.953,202.458 185.5,201.5 Z"/></g>
<g><path style="opacity:1" fill="#30892a" d="M 185.5,201.5 C 185.953,202.458 186.619,203.292 187.5,204C 186.056,205.126 185.39,206.626 185.5,208.5C 185.529,269.5 185.529,330.5 185.5,391.5C 186.401,395.241 185.068,397.241 181.5,397.5C 181.5,332.167 181.5,266.833 181.5,201.5C 182.833,201.5 184.167,201.5 185.5,201.5 Z"/></g>
<g><path style="opacity:1" fill="#318a29" d="M 214.5,201.5 C 215.5,201.5 216.5,201.5 217.5,201.5C 217.5,264.167 217.5,326.833 217.5,389.5C 216.849,390.091 216.182,390.757 215.5,391.5C 214.738,390.372 214.071,389.205 213.5,388C 214.486,325.781 214.82,263.614 214.5,201.5 Z"/></g>
<g><path style="opacity:1" fill="#468841" d="M 218.5,201.5 C 219.831,267.402 219.831,333.402 218.5,399.5C 205.5,399.5 192.5,399.5 179.5,399.5C 179.5,399.167 179.5,398.833 179.5,398.5C 179.833,398.5 180.167,398.5 180.5,398.5C 192.167,398.5 203.833,398.5 215.5,398.5C 216.906,398.027 217.573,397.027 217.5,395.5C 218.499,331.002 218.832,266.335 218.5,201.5 Z"/></g>
<g><path style="opacity:1" fill="#e2f6df" d="M 220.5,198.5 C 221.117,198.611 221.617,198.944 222,199.5C 222.167,232.833 222.333,266.167 222.5,299.5C 222.5,333.173 221.833,366.507 220.5,399.5C 220.5,332.5 220.5,265.5 220.5,198.5 Z"/></g>
<g><path style="opacity:1" fill="#398434" d="M 338.5,327.5 C 338.5,328.167 338.167,328.5 337.5,328.5C 335.568,325.634 333.901,322.634 332.5,319.5C 331.996,315.14 329.996,311.807 326.5,309.5C 325.969,306.763 325.136,304.096 324,301.5C 323.184,300.177 322.017,299.511 320.5,299.5C 319.89,298.609 319.557,297.609 319.5,296.5C 321.672,297.801 324.005,298.801 326.5,299.5C 325.875,303.584 327.375,306.584 331,308.5C 332.624,313.607 334.457,318.607 336.5,323.5C 337.667,283.504 337.833,243.504 337,203.5C 336.5,203 336,202.5 335.5,202C 313.127,201.523 290.961,201.357 269,201.5C 268.833,202.167 268.667,202.833 268.5,203.5C 270.327,205.487 271.327,207.821 271.5,210.5C 269.088,208.019 267.422,205.019 266.5,201.5C 290.202,200.177 313.869,200.177 337.5,201.5C 338.5,243.495 338.833,285.495 338.5,327.5 Z"/></g>
<g><path style="opacity:1" fill="#3c7d39" d="M 262.5,199.5 C 287.836,199.333 313.169,199.5 338.5,200C 339.252,200.671 339.586,201.504 339.5,202.5C 339.832,244.337 339.499,286.003 338.5,327.5C 338.833,285.495 338.5,243.495 337.5,201.5C 313.869,200.177 290.202,200.177 266.5,201.5C 267.422,205.019 269.088,208.019 271.5,210.5C 271.5,211.833 271.5,213.167 271.5,214.5C 267.76,210.033 264.76,205.033 262.5,199.5 Z"/></g>
<g><path style="opacity:1" fill="#4a7d47" d="M 339.5,202.5 C 339.833,202.5 340.167,202.5 340.5,202.5C 340.5,245.5 340.5,288.5 340.5,331.5C 340.631,332.239 340.464,332.906 340,333.5C 339.153,331.807 338.32,330.14 337.5,328.5C 338.167,328.5 338.5,328.167 338.5,327.5C 339.499,286.003 339.832,244.337 339.5,202.5 Z"/></g>
<g><path style="opacity:1" fill="#ecfdea" d="M 340.5,331.5 C 340.5,288.5 340.5,245.5 340.5,202.5C 340.5,201.167 340.5,199.833 340.5,198.5C 314.5,198.5 288.5,198.5 262.5,198.5C 262.5,196.833 262.5,195.167 262.5,193.5C 260.076,193.808 257.743,193.474 255.5,192.5C 258.833,191.167 262.167,191.167 265.5,192.5C 265.291,193.086 264.957,193.586 264.5,194C 266.246,194.471 267.913,195.138 269.5,196C 280.5,196.167 291.5,196.333 302.5,196.5C 315.35,196.406 327.85,195.739 340,194.5C 340.419,195.672 341.085,196.672 342,197.5C 342.388,241.85 342.721,286.183 343,330.5C 342.329,331.252 341.496,331.586 340.5,331.5 Z"/></g>
<g><path style="opacity:1" fill="#eafee7" d="M 380.5,198.5 C 380.5,199.833 380.5,201.167 380.5,202.5C 380.5,267.833 380.5,333.167 380.5,398.5C 380.5,398.833 380.5,399.167 380.5,399.5C 379.167,366.84 378.5,333.84 378.5,300.5C 378.667,267.5 378.833,234.5 379,201.5C 379.232,200.263 379.732,199.263 380.5,198.5 Z"/></g>
<g><path style="opacity:1" fill="#458440" d="M 417.5,200.5 C 418.117,200.611 418.617,200.944 419,201.5C 419.5,267.499 419.667,333.499 419.5,399.5C 406.5,399.5 393.5,399.5 380.5,399.5C 380.5,399.167 380.5,398.833 380.5,398.5C 380.833,398.5 381.167,398.5 381.5,398.5C 393.833,398.5 406.167,398.5 418.5,398.5C 418.826,332.459 418.493,266.459 417.5,200.5 Z"/></g>
<g><path style="opacity:1" fill="#ebfee9" d="M 500.5,399.5 C 500.5,332.5 500.5,265.5 500.5,198.5C 486.99,198.171 473.656,198.504 460.5,199.5C 460.5,265.833 460.5,332.167 460.5,398.5C 460.5,398.833 460.5,399.167 460.5,399.5C 459.167,366.34 458.5,332.84 458.5,299C 458.667,265.5 458.833,232 459,198.5C 459.7,196.968 460.866,195.968 462.5,195.5C 473.313,197.446 484.313,198.113 495.5,197.5C 495.5,196.5 495.5,195.5 495.5,194.5C 497.901,195.049 500.235,195.882 502.5,197C 502.15,231.39 502.15,265.89 502.5,300.5C 502.5,333.84 501.833,366.84 500.5,399.5 Z"/></g>
<g><path style="opacity:1" fill="#44763e" d="M 460.5,199.5 C 461.167,199.5 461.833,199.5 462.5,199.5C 461.89,200.391 461.557,201.391 461.5,202.5C 461.832,268.002 461.499,333.335 460.5,398.5C 460.5,332.167 460.5,265.833 460.5,199.5 Z"/></g>
<g><path style="opacity:1" fill="#33872d" d="M 498.5,386.5 C 497.518,389.962 497.185,393.629 497.5,397.5C 485.833,397.5 474.167,397.5 462.5,397.5C 462.174,332.125 462.507,266.792 463.5,201.5C 474.902,200.171 486.402,200.171 498,201.5C 498.5,263.166 498.667,324.832 498.5,386.5 Z"/></g>
<g><path style="opacity:1" fill="#44883e" d="M 463.5,201.5 C 462.507,266.792 462.174,332.125 462.5,397.5C 474.167,397.5 485.833,397.5 497.5,397.5C 497.185,393.629 497.518,389.962 498.5,386.5C 498.183,390.702 498.517,394.702 499.5,398.5C 499.5,398.833 499.5,399.167 499.5,399.5C 486.5,399.5 473.5,399.5 460.5,399.5C 460.5,399.167 460.5,398.833 460.5,398.5C 461.499,333.335 461.832,268.002 461.5,202.5C 462.167,202.167 462.833,201.833 463.5,201.5 Z"/></g>
<g><path style="opacity:1" fill="#3d7a38" d="M 462.5,199.5 C 474.833,199.5 487.167,199.5 499.5,199.5C 499.5,265.833 499.5,332.167 499.5,398.5C 498.517,394.702 498.183,390.702 498.5,386.5C 498.667,324.832 498.5,263.166 498,201.5C 486.402,200.171 474.902,200.171 463.5,201.5C 462.833,201.833 462.167,202.167 461.5,202.5C 461.557,201.391 461.89,200.391 462.5,199.5 Z"/></g>
<g><path style="opacity:1" fill="#608a5b" d="M 460.5,199.5 C 473.656,198.504 486.99,198.171 500.5,198.5C 500.5,265.5 500.5,332.5 500.5,399.5C 500.167,399.5 499.833,399.5 499.5,399.5C 499.5,399.167 499.5,398.833 499.5,398.5C 499.5,332.167 499.5,265.833 499.5,199.5C 487.167,199.5 474.833,199.5 462.5,199.5C 461.833,199.5 461.167,199.5 460.5,199.5 Z"/></g>
<g><path style="opacity:1" fill="#447a41" d="M 100.5,200.5 C 113.323,199.505 126.323,199.171 139.5,199.5C 139.5,266.167 139.5,332.833 139.5,399.5C 139.167,399.5 138.833,399.5 138.5,399.5C 138.832,333.331 138.499,267.331 137.5,201.5C 125.345,200.505 113.011,200.171 100.5,200.5 Z"/></g>
<g><path style="opacity:1" fill="#eeffec" d="M 139.5,198.5 C 140.833,231.66 141.5,265.16 141.5,299C 141.5,332.84 140.833,366.34 139.5,399.5C 139.5,332.833 139.5,266.167 139.5,199.5C 139.5,199.167 139.5,198.833 139.5,198.5 Z"/></g>
<g><path style="opacity:1" fill="#4d7c47" d="M 420.5,199.5 C 420.5,266.167 420.5,332.833 420.5,399.5C 420.167,399.5 419.833,399.5 419.5,399.5C 419.667,333.499 419.5,267.499 419,201.5C 418.617,200.944 418.117,200.611 417.5,200.5C 405.833,200.5 394.167,200.5 382.5,200.5C 381.51,266.471 381.177,332.471 381.5,398.5C 381.167,398.5 380.833,398.5 380.5,398.5C 380.5,333.167 380.5,267.833 380.5,202.5C 381.404,201.791 381.737,200.791 381.5,199.5C 394.5,199.5 407.5,199.5 420.5,199.5 Z"/></g>
<g><path style="opacity:1" fill="#f2fbed" d="M 262.5,198.5 C 262.5,198.833 262.5,199.167 262.5,199.5C 264.76,205.033 267.76,210.033 271.5,214.5C 271.5,215.167 271.5,215.833 271.5,216.5C 269.071,216.415 267.071,215.415 265.5,213.5C 263.03,209.25 261.196,204.917 260,200.5C 260.417,199.244 261.25,198.577 262.5,198.5 Z"/></g>
<g><path style="opacity:1" fill="#3f863a" d="M 100.5,200.5 C 113.011,200.171 125.345,200.505 137.5,201.5C 138.499,267.331 138.832,333.331 138.5,399.5C 126.167,399.5 113.833,399.5 101.5,399.5C 100.504,333.238 100.17,266.904 100.5,200.5 Z"/></g>
<g><path style="opacity:1" fill="#30892b" d="M 133.5,201.5 C 134.833,201.5 136.167,201.5 137.5,201.5C 137.5,265.5 137.5,329.5 137.5,393.5C 136.842,394.398 136.176,395.398 135.5,396.5C 133.519,395.895 133.185,394.895 134.5,393.5C 133.906,390.17 133.24,386.836 132.5,383.5C 131.794,326.874 131.127,270.374 130.5,214C 131.271,211.729 132.271,209.562 133.5,207.5C 132.347,205.432 132.347,203.432 133.5,201.5 Z"/></g>
<g><path style="opacity:1" fill="#33872c" d="M 133.5,201.5 C 132.347,203.432 132.347,205.432 133.5,207.5C 132.271,209.562 131.271,211.729 130.5,214C 131.127,270.374 131.794,326.874 132.5,383.5C 133.24,386.836 133.906,390.17 134.5,393.5C 133.185,394.895 133.519,395.895 135.5,396.5C 136.176,395.398 136.842,394.398 137.5,393.5C 137.5,394.833 137.5,396.167 137.5,397.5C 125.594,397.303 113.594,397.303 101.5,397.5C 101.5,332.167 101.5,266.833 101.5,201.5C 112.167,201.5 122.833,201.5 133.5,201.5 Z"/></g>
<g><path style="opacity:1" fill="#30892a" d="M 102.5,207.5 C 103.833,207.5 105.167,207.5 106.5,207.5C 106.667,266.168 106.5,324.834 106,383.5C 104.681,387.737 103.681,392.071 103,396.5C 102.5,333.501 102.333,270.501 102.5,207.5 Z"/></g>
<g><path style="opacity:1" fill="#478244" d="M 272.5,217.5 C 274.17,217.751 275.67,218.418 277,219.5C 279.718,225.888 282.884,232.055 286.5,238C 285.944,238.383 285.611,238.883 285.5,239.5C 285.167,239.5 284.833,239.5 284.5,239.5C 281.02,231.874 277.02,224.54 272.5,217.5 Z"/></g>
<g><path style="opacity:1" fill="#e8f9e6" d="M 271.5,216.5 C 272.167,216.5 272.5,216.833 272.5,217.5C 277.02,224.54 281.02,231.874 284.5,239.5C 283.5,239.5 282.5,239.5 281.5,239.5C 281.649,238.448 281.483,237.448 281,236.5C 274.769,231.049 271.603,224.382 271.5,216.5 Z"/></g>
<g><path style="opacity:1" fill="#e0f5db" d="M 287.5,244.5 C 290.916,248.323 293.582,252.657 295.5,257.5C 291.83,256.172 290.163,253.505 290.5,249.5C 289.5,249.5 288.5,249.5 287.5,249.5C 287.5,247.833 287.5,246.167 287.5,244.5 Z"/></g>
<g><path style="opacity:1" fill="#488342" d="M 285.5,239.5 C 288.875,242.535 292.041,245.868 295,249.5C 295.333,251.167 295.667,252.833 296,254.5C 299.059,259.285 301.559,264.285 303.5,269.5C 300.833,265.5 298.167,261.5 295.5,257.5C 293.582,252.657 290.916,248.323 287.5,244.5C 287.107,242.716 286.441,241.05 285.5,239.5 Z"/></g>
<g><path style="opacity:1" fill="#e6f8e3" d="M 295.5,257.5 C 298.167,261.5 300.833,265.5 303.5,269.5C 303.5,270.167 303.5,270.833 303.5,271.5C 302.504,271.586 301.671,271.252 301,270.5C 300.163,268.156 298.829,266.156 297,264.5C 296.023,262.26 295.523,259.927 295.5,257.5 Z"/></g>
<g><path style="opacity:1" fill="#45853f" d="M 304.5,271.5 C 305.5,271.5 306.5,271.5 307.5,271.5C 310.037,276.584 312.037,281.917 313.5,287.5C 312.5,286.167 311.5,284.833 310.5,283.5C 308.513,279.527 306.513,275.527 304.5,271.5 Z"/></g>
<g><path style="opacity:1" fill="#ddf5dd" d="M 303.5,271.5 C 303.833,271.5 304.167,271.5 304.5,271.5C 306.513,275.527 308.513,279.527 310.5,283.5C 309.504,283.586 308.671,283.252 308,282.5C 305.713,279.082 304.213,275.416 303.5,271.5 Z"/></g>
<g><path style="opacity:1" fill="#eefeeb" d="M 271.5,283.5 C 269.167,280.167 266.833,276.833 264.5,273.5C 264.672,272.508 264.338,271.842 263.5,271.5C 263.205,269.577 262.372,267.91 261,266.5C 260.5,310.832 260.333,355.165 260.5,399.5C 258.823,356.316 257.823,312.816 257.5,269C 259.278,266.358 261.778,264.858 265,264.5C 267.526,265.128 268.359,266.461 267.5,268.5C 268.441,268.489 269.108,268.989 269.5,270C 269.04,271.301 268.706,272.634 268.5,274C 269.812,277.116 270.812,280.282 271.5,283.5 Z"/></g>
<g><path style="opacity:1" fill="#6e986b" d="M 263.5,271.5 C 261.505,313.487 260.839,355.82 261.5,398.5C 261.5,398.833 261.5,399.167 261.5,399.5C 261.167,399.5 260.833,399.5 260.5,399.5C 260.333,355.165 260.5,310.832 261,266.5C 262.372,267.91 263.205,269.577 263.5,271.5 Z"/></g>
<g><path style="opacity:1" fill="#3e7a3c" d="M 263.5,271.5 C 264.338,271.842 264.672,272.508 264.5,273.5C 262.506,314.82 261.839,356.487 262.5,398.5C 262.167,398.5 261.833,398.5 261.5,398.5C 260.839,355.82 261.505,313.487 263.5,271.5 Z"/></g>
<g><path style="opacity:1" fill="#3d8439" d="M 264.5,273.5 C 266.833,276.833 269.167,280.167 271.5,283.5C 271.833,284.833 272.167,286.167 272.5,287.5C 270.596,285.055 268.262,283.055 265.5,281.5C 264.262,283.214 263.595,285.214 263.5,287.5C 263.5,324.5 263.5,361.5 263.5,398.5C 263.167,398.5 262.833,398.5 262.5,398.5C 261.839,356.487 262.506,314.82 264.5,273.5 Z"/></g>
<g><path style="opacity:1" fill="#33872d" d="M 265.5,281.5 C 268.262,283.055 270.596,285.055 272.5,287.5C 272.833,287.5 273.167,287.5 273.5,287.5C 273.5,287.833 273.5,288.167 273.5,288.5C 273.5,291.5 273.5,294.5 273.5,297.5C 275.39,297.297 276.89,297.963 278,299.5C 277.987,303.485 279.654,306.485 283,308.5C 285.725,311.882 286.558,315.548 285.5,319.5C 286.833,319.5 288.167,319.5 289.5,319.5C 290.25,323.806 292.584,326.806 296.5,328.5C 296.804,331.522 297.304,334.522 298,337.5C 300.614,339.697 302.78,342.197 304.5,345C 305.094,345.464 305.761,345.631 306.5,345.5C 307.201,349.301 308.368,352.968 310,356.5C 311.4,357.748 312.9,358.748 314.5,359.5C 317.414,363.658 320.081,367.991 322.5,372.5C 322.433,374.401 322.767,376.234 323.5,378C 327.24,384.176 330.906,390.343 334.5,396.5C 312.004,397.167 289.67,397.833 267.5,398.5C 266.167,398.5 264.833,398.5 263.5,398.5C 263.5,361.5 263.5,324.5 263.5,287.5C 264.332,319.331 264.832,351.331 265,383.5C 266,391.5 267,391.5 268,383.5C 268.667,350.5 268.667,317.5 268,284.5C 266.955,283.627 266.122,282.627 265.5,281.5 Z"/></g>
<g><path style="opacity:1" fill="#2f892b" d="M 265.5,281.5 C 266.122,282.627 266.955,283.627 268,284.5C 268.667,317.5 268.667,350.5 268,383.5C 267,391.5 266,391.5 265,383.5C 264.832,351.331 264.332,319.331 263.5,287.5C 263.595,285.214 264.262,283.214 265.5,281.5 Z"/></g>
<g><path style="opacity:1" fill="#477f41" d="M 313.5,288.5 C 313.5,288.167 313.5,287.833 313.5,287.5C 315.115,289.374 317.115,290.708 319.5,291.5C 319.5,293.167 319.5,294.833 319.5,296.5C 317.115,294.116 315.115,291.45 313.5,288.5 Z"/></g>
<g><path style="opacity:1" fill="#41813c" d="M 273.5,288.5 C 281.669,301.499 289.335,314.832 296.5,328.5C 292.584,326.806 290.25,323.806 289.5,319.5C 288.167,319.5 286.833,319.5 285.5,319.5C 286.558,315.548 285.725,311.882 283,308.5C 279.654,306.485 277.987,303.485 278,299.5C 276.89,297.963 275.39,297.297 273.5,297.5C 273.5,294.5 273.5,291.5 273.5,288.5 Z"/></g>
<g><path style="opacity:1" fill="#e6f6e3" d="M 313.5,288.5 C 315.115,291.45 317.115,294.116 319.5,296.5C 319.557,297.609 319.89,298.609 320.5,299.5C 321.11,300.391 321.443,301.391 321.5,302.5C 319.783,300.638 317.783,298.971 315.5,297.5C 314.358,294.601 313.692,291.601 313.5,288.5 Z"/></g>
<g><path style="opacity:1" fill="#e9f9e6" d="M 273.5,288.5 C 273.5,288.167 273.5,287.833 273.5,287.5C 274.5,287.5 275.5,287.5 276.5,287.5C 276.351,288.552 276.517,289.552 277,290.5C 281.319,293.166 283.485,296.833 283.5,301.5C 286.167,300.167 286.833,300.833 285.5,303.5C 286.432,305.795 287.265,308.129 288,310.5C 290.746,312.037 293.079,314.037 295,316.5C 298.054,322.253 300.554,328.253 302.5,334.5C 308.294,338.627 311.294,344.294 311.5,351.5C 309.833,349.5 308.167,347.5 306.5,345.5C 303.92,339.332 300.586,333.665 296.5,328.5C 289.335,314.832 281.669,301.499 273.5,288.5 Z"/></g>
<g><path style="opacity:1" fill="#52854c" d="M 320.5,299.5 C 322.017,299.511 323.184,300.177 324,301.5C 325.136,304.096 325.969,306.763 326.5,309.5C 325.079,306.991 323.412,304.657 321.5,302.5C 321.443,301.391 321.11,300.391 320.5,299.5 Z"/></g>
<g><path style="opacity:1" fill="#558850" d="M 326.5,309.5 C 329.996,311.807 331.996,315.14 332.5,319.5C 330,316.506 328,313.173 326.5,309.5 Z"/></g>
<g><path style="opacity:1" fill="#438240" d="M 296.5,328.5 C 300.586,333.665 303.92,339.332 306.5,345.5C 305.761,345.631 305.094,345.464 304.5,345C 302.78,342.197 300.614,339.697 298,337.5C 297.304,334.522 296.804,331.522 296.5,328.5 Z"/></g>
<g><path style="opacity:1" fill="#44853f" d="M 306.5,345.5 C 308.167,347.5 309.833,349.5 311.5,351.5C 311.893,353.284 312.559,354.95 313.5,356.5C 314.11,357.391 314.443,358.391 314.5,359.5C 312.9,358.748 311.4,357.748 310,356.5C 308.368,352.968 307.201,349.301 306.5,345.5 Z"/></g>
<g><path style="opacity:1" fill="#e4f6e2" d="M 313.5,356.5 C 317.557,359.391 320.724,363.058 323,367.5C 323.941,370.154 324.774,372.821 325.5,375.5C 324.272,374.694 323.272,373.694 322.5,372.5C 320.081,367.991 317.414,363.658 314.5,359.5C 314.443,358.391 314.11,357.391 313.5,356.5 Z"/></g>
<g><path style="opacity:1" fill="#368433" d="M 417.5,200.5 C 418.493,266.459 418.826,332.459 418.5,398.5C 406.167,398.5 393.833,398.5 381.5,398.5C 381.177,332.471 381.51,266.471 382.5,200.5C 394.167,200.5 405.833,200.5 417.5,200.5 Z"/></g>
<g><path style="opacity:1" fill="#32882c" d="M 383.5,201.5 C 394.172,201.333 404.839,201.5 415.5,202C 416,202.5 416.5,203 417,203.5C 417.833,268.169 417.667,332.836 416.5,397.5C 415.548,395.955 415.215,394.288 415.5,392.5C 404.833,392.5 394.167,392.5 383.5,392.5C 383.477,328.752 383.477,265.085 383.5,201.5 Z"/></g>
<g><path style="opacity:1" fill="#3e843b" d="M 322.5,372.5 C 323.272,373.694 324.272,374.694 325.5,375.5C 328.578,381.991 331.912,388.325 335.5,394.5C 335.5,395.833 335.5,397.167 335.5,398.5C 312.833,398.5 290.167,398.5 267.5,398.5C 289.67,397.833 312.004,397.167 334.5,396.5C 330.906,390.343 327.24,384.176 323.5,378C 322.767,376.234 322.433,374.401 322.5,372.5 Z"/></g>
<g><path style="opacity:1" fill="#68a765" d="M 335.5,394.5 C 336.479,395.765 337.479,397.099 338.5,398.5C 312.842,399.5 287.175,399.833 261.5,399.5C 261.5,399.167 261.5,398.833 261.5,398.5C 261.833,398.5 262.167,398.5 262.5,398.5C 262.833,398.5 263.167,398.5 263.5,398.5C 264.833,398.5 266.167,398.5 267.5,398.5C 290.167,398.5 312.833,398.5 335.5,398.5C 335.5,397.167 335.5,395.833 335.5,394.5 Z"/></g>
</svg>
